<?xml version="1.0" encoding="UTF-8" standalone="no"?><svg xmlns="http://www.w3.org/2000/svg" xmlns:xlink="http://www.w3.org/1999/xlink" style="isolation:isolate" viewBox="0 0 904 427" width="904pt" height="427pt"><defs><clipPath id="_clipPath_DppizXx4in0Kf0Pj0kfDOUU0AEJ7Baea"><rect width="904" height="427"/></clipPath></defs><g clip-path="url(#_clipPath_DppizXx4in0Kf0Pj0kfDOUU0AEJ7Baea)"><path d=" M 429.936 286.621 L 455.818 286.621 L 455.818 140.63 L 429.936 140.63 L 425.413 115 L 488.735 115 L 488.735 312 L 425.413 312 L 429.936 286.621 Z " fill="rgb(95,99,104)"/><path d=" M 108.352 140.63 L 82.471 140.63 L 82.471 286.621 L 108.352 286.621 L 113.378 312 L 50.056 312 L 50.056 115 L 113.378 115 L 108.352 140.63 Z " fill="rgb(95,99,104)"/><path d=" M 147.846 139.453 L 279.77 139.453 C 288.079 139.453 294.825 146.199 294.825 154.508 L 294.825 272.492 C 294.825 280.801 288.079 287.547 279.77 287.547 L 147.846 287.547 C 139.537 287.547 132.791 280.801 132.791 272.492 L 132.791 154.508 C 132.791 146.199 139.537 139.453 147.846 139.453 Z  M 227.523 225.123 L 213.421 188.394 L 199.628 225.123 L 227.523 225.123 L 227.523 225.123 Z  M 205.362 160.809 L 222.409 160.809 L 263.322 263.402 L 243.176 266.191 L 233.722 241.395 L 193.739 241.395 L 184.441 266.191 L 164.294 266.191 L 205.362 160.809 L 205.362 160.809 Z " fill-rule="evenodd" fill="rgb(255,0,102)"/><path d=" M 336.565 161.735 L 375.928 161.735 L 375.928 161.735 Q 391.271 161.735 400.879 168.476 L 400.879 168.476 L 400.879 168.476 Q 410.487 175.218 410.487 191.18 L 410.487 191.18 L 410.487 191.18 Q 410.487 197.069 407.775 201.796 L 407.775 201.796 L 407.775 201.796 Q 405.063 206.522 400.724 209.932 L 400.724 209.932 L 400.724 209.932 Q 407.853 213.651 412.425 220.005 L 412.425 220.005 L 412.425 220.005 Q 416.996 226.359 416.996 236.123 L 416.996 236.123 L 416.996 236.123 Q 416.996 250.69 406.846 258.904 L 406.846 258.904 L 406.846 258.904 Q 396.695 267.117 379.802 267.117 L 379.802 267.117 L 336.565 267.117 L 336.565 161.735 Z  M 372.984 178.472 L 372.984 178.472 L 356.556 178.472 L 356.556 204.663 L 371.434 204.663 L 371.434 204.663 Q 379.802 204.663 384.529 201.486 L 384.529 201.486 L 384.529 201.486 Q 389.256 198.309 389.256 191.49 L 389.256 191.49 L 389.256 191.49 Q 389.256 184.051 384.917 181.262 L 384.917 181.262 L 384.917 181.262 Q 380.577 178.472 372.984 178.472 Z  M 379.648 220.935 L 379.648 220.935 L 356.556 220.935 L 356.556 250.535 L 378.253 250.535 L 378.253 250.535 Q 386.311 250.535 391.193 246.816 L 391.193 246.816 L 391.193 246.816 Q 396.075 243.096 396.075 236.278 L 396.075 236.278 L 396.075 236.278 Q 396.075 228.839 391.581 224.887 L 391.581 224.887 L 391.581 224.887 Q 387.086 220.935 379.648 220.935 Z " fill="rgb(95,99,104)"/><path d=" M 571.518 177.994 L 571.518 177.994 L 559.475 177.994 L 559.475 209.308 L 571.82 209.308 L 571.82 209.308 Q 580.551 209.308 586.272 205.77 L 586.272 205.77 L 586.272 205.77 Q 591.993 202.232 591.993 194.102 L 591.993 194.102 L 591.993 194.102 Q 591.993 185.521 586.573 181.758 L 586.573 181.758 L 586.573 181.758 Q 581.153 177.994 571.518 177.994 Z  M 620.296 264.107 L 599.52 264.107 L 577.841 224.964 L 577.841 224.964 Q 576.185 225.115 574.379 225.19 L 574.379 225.19 L 574.379 225.19 Q 572.572 225.266 570.766 225.266 L 570.766 225.266 L 559.475 225.266 L 559.475 264.107 L 540.054 264.107 L 540.054 161.735 L 572.121 161.735 L 572.121 161.735 Q 588.831 161.735 600.724 169.413 L 600.724 169.413 L 600.724 169.413 Q 612.618 177.091 612.618 193.199 L 612.618 193.199 L 612.618 193.199 Q 612.618 202.684 607.725 209.533 L 607.725 209.533 L 607.725 209.533 Q 602.832 216.383 595.154 220.147 L 595.154 220.147 L 620.296 264.107 Z  M 664.857 265.913 L 664.857 265.913 L 664.857 265.913 Q 647.544 265.913 637.834 255.45 L 637.834 255.45 L 637.834 255.45 Q 628.124 244.987 628.124 227.373 L 628.124 227.373 L 628.124 227.373 Q 628.124 209.91 638.286 199.522 L 638.286 199.522 L 638.286 199.522 Q 648.448 189.134 666.062 189.134 L 666.062 189.134 L 666.062 189.134 Q 684.278 189.134 694.289 199.898 L 694.289 199.898 L 694.289 199.898 Q 704.301 210.663 704.301 228.126 L 704.301 228.126 L 704.301 228.126 Q 704.301 245.589 693.461 255.751 L 693.461 255.751 L 693.461 255.751 Q 682.622 265.913 664.857 265.913 Z  M 684.127 228.126 L 684.127 228.126 L 684.127 228.126 Q 684.127 217.738 679.536 211.792 L 679.536 211.792 L 679.536 211.792 Q 674.944 205.845 666.513 205.845 L 666.513 205.845 L 666.513 205.845 Q 657.932 205.845 653.115 211.114 L 653.115 211.114 L 653.115 211.114 Q 648.297 216.383 648.297 227.223 L 648.297 227.223 L 648.297 227.223 Q 648.297 238.062 652.437 243.632 L 652.437 243.632 L 652.437 243.632 Q 656.577 249.202 665.158 249.202 L 665.158 249.202 L 665.158 249.202 Q 673.589 249.202 678.858 244.159 L 678.858 244.159 L 678.858 244.159 Q 684.127 239.116 684.127 228.126 Z  M 753.68 265.913 L 753.68 265.913 L 753.68 265.913 Q 736.367 265.913 726.657 255.45 L 726.657 255.45 L 726.657 255.45 Q 716.946 244.987 716.946 227.373 L 716.946 227.373 L 716.946 227.373 Q 716.946 209.91 727.108 199.522 L 727.108 199.522 L 727.108 199.522 Q 737.27 189.134 754.884 189.134 L 754.884 189.134 L 754.884 189.134 Q 773.1 189.134 783.112 199.898 L 783.112 199.898 L 783.112 199.898 Q 793.123 210.663 793.123 228.126 L 793.123 228.126 L 793.123 228.126 Q 793.123 245.589 782.284 255.751 L 782.284 255.751 L 782.284 255.751 Q 771.444 265.913 753.68 265.913 Z  M 772.95 228.126 L 772.95 228.126 L 772.95 228.126 Q 772.95 217.738 768.358 211.792 L 768.358 211.792 L 768.358 211.792 Q 763.766 205.845 755.336 205.845 L 755.336 205.845 L 755.336 205.845 Q 746.755 205.845 741.937 211.114 L 741.937 211.114 L 741.937 211.114 Q 737.12 216.383 737.12 227.223 L 737.12 227.223 L 737.12 227.223 Q 737.12 238.062 741.26 243.632 L 741.26 243.632 L 741.26 243.632 Q 745.4 249.202 753.981 249.202 L 753.981 249.202 L 753.981 249.202 Q 762.411 249.202 767.681 244.159 L 767.681 244.159 L 767.681 244.159 Q 772.95 239.116 772.95 228.126 Z  M 848.223 248.45 L 853.944 262.601 L 853.944 262.601 Q 851.535 264.558 847.094 265.838 L 847.094 265.838 L 847.094 265.838 Q 842.653 267.117 839.19 267.117 L 839.19 267.117 L 839.19 267.117 Q 825.641 267.117 817.888 260.268 L 817.888 260.268 L 817.888 260.268 Q 810.135 253.418 810.135 240.772 L 810.135 240.772 L 810.135 206.297 L 800.349 206.297 L 800.349 191.242 L 810.135 191.242 L 810.135 173.929 L 829.555 170.467 L 829.555 191.242 L 842.803 191.242 L 848.825 206.297 L 829.555 206.297 L 829.555 237.309 L 829.555 237.309 Q 829.555 243.03 832.265 246.718 L 832.265 246.718 L 832.265 246.718 Q 834.975 250.407 840.244 250.407 L 840.244 250.407 L 840.244 250.407 Q 842.201 250.407 844.158 249.955 L 844.158 249.955 L 844.158 249.955 Q 846.115 249.504 848.223 248.45 L 848.223 248.45 Z " fill="rgb(95,99,104)"/></g></svg>