<svg width="445" height="343" viewBox="0 0 445 343" fill="none" xmlns="http://www.w3.org/2000/svg">
<g filter="url(#filter0_d_312_20)">
<rect x="50" y="49.9998" width="345" height="243" rx="10" fill="#424242" fill-opacity="0.4" shape-rendering="crispEdges"/>
<rect x="51" y="50.9998" width="343" height="241" rx="9" stroke="url(#paint0_linear_312_20)" stroke-opacity="0.38" stroke-width="2" shape-rendering="crispEdges"/>
</g>
<g filter="url(#filter1_f_312_20)">
<path d="M114.801 132.592V129.2H120.017C121.084 129.2 121.905 128.933 122.481 128.4C123.078 127.845 123.377 127.088 123.377 126.128C123.377 125.253 123.078 124.528 122.481 123.952C121.905 123.355 121.084 123.056 120.017 123.056H114.801V119.504H120.401C121.852 119.504 123.121 119.792 124.209 120.368C125.318 120.923 126.172 121.691 126.769 122.672C127.388 123.653 127.697 124.784 127.697 126.064C127.697 127.387 127.388 128.539 126.769 129.52C126.172 130.48 125.318 131.237 124.209 131.792C123.1 132.325 121.809 132.592 120.337 132.592H114.801ZM111.601 142V119.504H115.953V142H111.601ZM123.889 142L116.465 132.272L120.465 131.024L129.169 142H123.889Z" fill="white"/>
<path d="M138.011 142.32C136.453 142.32 135.045 141.968 133.787 141.264C132.549 140.539 131.557 139.568 130.811 138.352C130.085 137.115 129.723 135.739 129.723 134.224C129.723 132.709 130.085 131.355 130.811 130.16C131.536 128.944 132.528 127.984 133.787 127.28C135.045 126.555 136.443 126.192 137.979 126.192C139.557 126.192 140.965 126.555 142.203 127.28C143.461 127.984 144.453 128.944 145.179 130.16C145.904 131.355 146.267 132.709 146.267 134.224C146.267 135.739 145.904 137.115 145.179 138.352C144.453 139.568 143.461 140.539 142.203 141.264C140.965 141.968 139.568 142.32 138.011 142.32ZM137.979 138.416C138.768 138.416 139.461 138.245 140.059 137.904C140.677 137.541 141.147 137.051 141.467 136.432C141.808 135.792 141.979 135.067 141.979 134.256C141.979 133.445 141.808 132.731 141.467 132.112C141.125 131.493 140.656 131.013 140.059 130.672C139.461 130.309 138.768 130.128 137.979 130.128C137.211 130.128 136.528 130.309 135.931 130.672C135.333 131.013 134.864 131.493 134.523 132.112C134.181 132.731 134.011 133.445 134.011 134.256C134.011 135.067 134.181 135.792 134.523 136.432C134.864 137.051 135.333 137.541 135.931 137.904C136.528 138.245 137.211 138.416 137.979 138.416Z" fill="white"/>
<path d="M156.229 142.32C154.672 142.32 153.264 141.968 152.005 141.264C150.768 140.539 149.776 139.568 149.029 138.352C148.304 137.115 147.941 135.739 147.941 134.224C147.941 132.709 148.304 131.355 149.029 130.16C149.755 128.944 150.747 127.984 152.005 127.28C153.264 126.555 154.661 126.192 156.197 126.192C157.776 126.192 159.184 126.555 160.421 127.28C161.68 127.984 162.672 128.944 163.397 130.16C164.123 131.355 164.485 132.709 164.485 134.224C164.485 135.739 164.123 137.115 163.397 138.352C162.672 139.568 161.68 140.539 160.421 141.264C159.184 141.968 157.787 142.32 156.229 142.32ZM156.197 138.416C156.987 138.416 157.68 138.245 158.277 137.904C158.896 137.541 159.365 137.051 159.685 136.432C160.027 135.792 160.197 135.067 160.197 134.256C160.197 133.445 160.027 132.731 159.685 132.112C159.344 131.493 158.875 131.013 158.277 130.672C157.68 130.309 156.987 130.128 156.197 130.128C155.429 130.128 154.747 130.309 154.149 130.672C153.552 131.013 153.083 131.493 152.741 132.112C152.4 132.731 152.229 133.445 152.229 134.256C152.229 135.067 152.4 135.792 152.741 136.432C153.083 137.051 153.552 137.541 154.149 137.904C154.747 138.245 155.429 138.416 156.197 138.416Z" fill="white"/>
<path d="M169.081 142V120.112H173.273V142H169.081ZM165.465 130.224V126.544H176.889V130.224H165.465Z" fill="white"/>
<path d="M183.374 142L192.43 119.504H195.982L205.006 142H200.366L193.39 123.536H194.99L187.918 142H183.374ZM188.174 137.808V134.16H200.27V137.808H188.174Z" fill="white"/>
<path d="M217.705 145.936C216.553 144.912 215.55 143.664 214.697 142.192C213.865 140.741 213.225 139.152 212.777 137.424C212.329 135.675 212.105 133.861 212.105 131.984C212.105 130.085 212.329 128.272 212.777 126.544C213.225 124.795 213.865 123.195 214.697 121.744C215.55 120.272 216.553 119.024 217.705 118L220.073 120.176C218.686 121.499 217.609 123.163 216.841 125.168C216.094 127.173 215.721 129.445 215.721 131.984C215.721 134.501 216.094 136.763 216.841 138.768C217.609 140.773 218.686 142.437 220.073 143.76L217.705 145.936Z" fill="white"/>
<path d="M229.824 142.32C228.245 142.32 226.827 141.968 225.568 141.264C224.309 140.56 223.317 139.6 222.592 138.384C221.867 137.168 221.504 135.803 221.504 134.288C221.504 132.752 221.867 131.376 222.592 130.16C223.317 128.944 224.309 127.984 225.568 127.28C226.848 126.555 228.267 126.192 229.824 126.192C231.04 126.192 232.16 126.416 233.184 126.864C234.208 127.312 235.093 127.952 235.84 128.784L233.152 131.504C232.747 131.056 232.256 130.715 231.68 130.48C231.125 130.245 230.507 130.128 229.824 130.128C229.056 130.128 228.363 130.309 227.744 130.672C227.147 131.013 226.667 131.493 226.304 132.112C225.963 132.709 225.792 133.424 225.792 134.256C225.792 135.067 225.963 135.792 226.304 136.432C226.667 137.051 227.147 137.541 227.744 137.904C228.363 138.245 229.056 138.416 229.824 138.416C230.528 138.416 231.157 138.299 231.712 138.064C232.288 137.808 232.779 137.445 233.184 136.976L235.904 139.696C235.115 140.549 234.208 141.2 233.184 141.648C232.16 142.096 231.04 142.32 229.824 142.32Z" fill="white"/>
<path d="M244.87 142.32C243.505 142.32 242.289 142.032 241.222 141.456C240.177 140.88 239.355 140.08 238.758 139.056C238.161 138.032 237.862 136.848 237.862 135.504V126.544H242.086V135.408C242.086 136.048 242.193 136.603 242.406 137.072C242.619 137.52 242.939 137.861 243.366 138.096C243.793 138.331 244.294 138.448 244.87 138.448C245.745 138.448 246.427 138.181 246.918 137.648C247.409 137.115 247.654 136.368 247.654 135.408V126.544H251.846V135.504C251.846 136.869 251.547 138.064 250.95 139.088C250.374 140.112 249.553 140.912 248.486 141.488C247.441 142.043 246.235 142.32 244.87 142.32Z" fill="white"/>
<path d="M255.184 142V126.544H259.376V142H255.184ZM259.376 133.456L257.744 132.368C257.936 130.469 258.491 128.976 259.408 127.888C260.325 126.779 261.648 126.224 263.376 126.224C264.123 126.224 264.795 126.352 265.392 126.608C265.989 126.843 266.533 127.237 267.024 127.792L264.4 130.8C264.165 130.544 263.877 130.352 263.536 130.224C263.216 130.096 262.843 130.032 262.416 130.032C261.52 130.032 260.784 130.32 260.208 130.896C259.653 131.451 259.376 132.304 259.376 133.456Z" fill="white"/>
<path d="M268.434 142V126.544H272.626V142H268.434ZM272.626 133.456L270.994 132.368C271.186 130.469 271.741 128.976 272.658 127.888C273.575 126.779 274.898 126.224 276.626 126.224C277.373 126.224 278.045 126.352 278.642 126.608C279.239 126.843 279.783 127.237 280.274 127.792L277.65 130.8C277.415 130.544 277.127 130.352 276.786 130.224C276.466 130.096 276.093 130.032 275.666 130.032C274.77 130.032 274.034 130.32 273.458 130.896C272.903 131.451 272.626 132.304 272.626 133.456Z" fill="white"/>
<path d="M288.701 142.32C287.08 142.32 285.64 141.979 284.381 141.296C283.122 140.592 282.12 139.632 281.373 138.416C280.648 137.2 280.285 135.813 280.285 134.256C280.285 132.72 280.637 131.355 281.341 130.16C282.066 128.944 283.048 127.984 284.285 127.28C285.522 126.555 286.898 126.192 288.413 126.192C289.906 126.192 291.218 126.533 292.349 127.216C293.501 127.877 294.397 128.795 295.037 129.968C295.698 131.12 296.029 132.432 296.029 133.904C296.029 134.181 296.008 134.469 295.965 134.768C295.944 135.045 295.89 135.365 295.805 135.728L282.813 135.76V132.624L293.853 132.592L292.157 133.904C292.114 132.987 291.944 132.219 291.645 131.6C291.368 130.981 290.952 130.512 290.397 130.192C289.864 129.851 289.202 129.68 288.413 129.68C287.581 129.68 286.856 129.872 286.237 130.256C285.618 130.619 285.138 131.141 284.797 131.824C284.477 132.485 284.317 133.275 284.317 134.192C284.317 135.131 284.488 135.952 284.829 136.656C285.192 137.339 285.704 137.872 286.365 138.256C287.026 138.619 287.794 138.8 288.669 138.8C289.458 138.8 290.173 138.672 290.813 138.416C291.453 138.139 292.008 137.733 292.477 137.2L294.941 139.664C294.194 140.539 293.277 141.2 292.189 141.648C291.122 142.096 289.96 142.32 288.701 142.32Z" fill="white"/>
<path d="M309.022 142V133.136C309.022 132.219 308.734 131.472 308.158 130.896C307.582 130.32 306.835 130.032 305.918 130.032C305.32 130.032 304.787 130.16 304.318 130.416C303.848 130.672 303.475 131.035 303.198 131.504C302.942 131.973 302.814 132.517 302.814 133.136L301.182 132.304C301.182 131.088 301.438 130.032 301.95 129.136C302.483 128.219 303.208 127.504 304.126 126.992C305.064 126.48 306.12 126.224 307.294 126.224C308.424 126.224 309.438 126.512 310.334 127.088C311.23 127.643 311.934 128.379 312.446 129.296C312.958 130.192 313.214 131.163 313.214 132.208V142H309.022ZM298.622 142V126.544H302.814V142H298.622Z" fill="white"/>
<path d="M318.675 142V120.112H322.867V142H318.675ZM315.059 130.224V126.544H326.483V130.224H315.059Z" fill="white"/>
<path d="M329.96 145.936L327.624 143.76C329.011 142.437 330.078 140.773 330.824 138.768C331.571 136.763 331.944 134.501 331.944 131.984C331.944 129.445 331.571 127.173 330.824 125.168C330.078 123.163 329.011 121.499 327.624 120.176L329.96 118C331.134 119.024 332.136 120.272 332.968 121.744C333.8 123.195 334.44 124.795 334.888 126.544C335.358 128.272 335.592 130.085 335.592 131.984C335.592 133.861 335.358 135.675 334.888 137.424C334.44 139.152 333.8 140.741 332.968 142.192C332.136 143.664 331.134 144.912 329.96 145.936Z" fill="white"/>
</g>
<path d="M106.504 209.592V206.2H111.72C112.787 206.2 113.608 205.933 114.184 205.4C114.781 204.845 115.08 204.088 115.08 203.128C115.08 202.253 114.781 201.528 114.184 200.952C113.608 200.355 112.787 200.056 111.72 200.056H106.504V196.504H112.104C113.555 196.504 114.824 196.792 115.912 197.368C117.021 197.923 117.875 198.691 118.472 199.672C119.091 200.653 119.4 201.784 119.4 203.064C119.4 204.387 119.091 205.539 118.472 206.52C117.875 207.48 117.021 208.237 115.912 208.792C114.803 209.325 113.512 209.592 112.04 209.592H106.504ZM103.304 219V196.504H107.656V219H103.304ZM115.592 219L108.168 209.272L112.168 208.024L120.872 219H115.592Z" fill="#FF0066"/>
<path d="M129.714 219.32C128.156 219.32 126.748 218.968 125.49 218.264C124.252 217.539 123.26 216.568 122.514 215.352C121.788 214.115 121.426 212.739 121.426 211.224C121.426 209.709 121.788 208.355 122.514 207.16C123.239 205.944 124.231 204.984 125.49 204.28C126.748 203.555 128.146 203.192 129.682 203.192C131.26 203.192 132.668 203.555 133.906 204.28C135.164 204.984 136.156 205.944 136.882 207.16C137.607 208.355 137.97 209.709 137.97 211.224C137.97 212.739 137.607 214.115 136.882 215.352C136.156 216.568 135.164 217.539 133.906 218.264C132.668 218.968 131.271 219.32 129.714 219.32ZM129.682 215.416C130.471 215.416 131.164 215.245 131.762 214.904C132.38 214.541 132.85 214.051 133.17 213.432C133.511 212.792 133.682 212.067 133.682 211.256C133.682 210.445 133.511 209.731 133.17 209.112C132.828 208.493 132.359 208.013 131.762 207.672C131.164 207.309 130.471 207.128 129.682 207.128C128.914 207.128 128.231 207.309 127.634 207.672C127.036 208.013 126.567 208.493 126.226 209.112C125.884 209.731 125.714 210.445 125.714 211.256C125.714 212.067 125.884 212.792 126.226 213.432C126.567 214.051 127.036 214.541 127.634 214.904C128.231 215.245 128.914 215.416 129.682 215.416Z" fill="#FF0066"/>
<path d="M147.933 219.32C146.375 219.32 144.967 218.968 143.709 218.264C142.471 217.539 141.479 216.568 140.733 215.352C140.007 214.115 139.645 212.739 139.645 211.224C139.645 209.709 140.007 208.355 140.733 207.16C141.458 205.944 142.45 204.984 143.709 204.28C144.967 203.555 146.365 203.192 147.901 203.192C149.479 203.192 150.887 203.555 152.125 204.28C153.383 204.984 154.375 205.944 155.101 207.16C155.826 208.355 156.189 209.709 156.189 211.224C156.189 212.739 155.826 214.115 155.101 215.352C154.375 216.568 153.383 217.539 152.125 218.264C150.887 218.968 149.49 219.32 147.933 219.32ZM147.901 215.416C148.69 215.416 149.383 215.245 149.981 214.904C150.599 214.541 151.069 214.051 151.389 213.432C151.73 212.792 151.901 212.067 151.901 211.256C151.901 210.445 151.73 209.731 151.389 209.112C151.047 208.493 150.578 208.013 149.981 207.672C149.383 207.309 148.69 207.128 147.901 207.128C147.133 207.128 146.45 207.309 145.853 207.672C145.255 208.013 144.786 208.493 144.445 209.112C144.103 209.731 143.933 210.445 143.933 211.256C143.933 212.067 144.103 212.792 144.445 213.432C144.786 214.051 145.255 214.541 145.853 214.904C146.45 215.245 147.133 215.416 147.901 215.416Z" fill="#FF0066"/>
<path d="M160.784 219V197.112H164.976V219H160.784ZM157.168 207.224V203.544H168.592V207.224H157.168Z" fill="#FF0066"/>
<path d="M180.848 219V215.448H186.704C187.749 215.448 188.56 215.128 189.136 214.488C189.733 213.848 190.032 213.091 190.032 212.216C190.032 211.619 189.904 211.075 189.648 210.584C189.392 210.093 189.008 209.709 188.496 209.432C188.005 209.133 187.408 208.984 186.704 208.984H180.848V205.464H186.224C187.12 205.464 187.834 205.24 188.368 204.792C188.922 204.344 189.2 203.672 189.2 202.776C189.2 201.859 188.922 201.176 188.368 200.728C187.834 200.28 187.12 200.056 186.224 200.056H180.848V196.504H186.736C188.229 196.504 189.477 196.781 190.48 197.336C191.504 197.869 192.272 198.584 192.784 199.48C193.296 200.355 193.552 201.315 193.552 202.36C193.552 203.64 193.157 204.749 192.368 205.688C191.6 206.605 190.469 207.288 188.976 207.736L189.168 206.328C190.832 206.797 192.112 207.576 193.008 208.664C193.925 209.731 194.384 211.021 194.384 212.536C194.384 213.731 194.085 214.819 193.488 215.8C192.912 216.76 192.058 217.539 190.928 218.136C189.818 218.712 188.464 219 186.864 219H180.848ZM177.648 219V196.504H181.968V219H177.648Z" fill="#FF0066"/>
<path d="M208.533 222.936C207.381 221.912 206.379 220.664 205.525 219.192C204.693 217.741 204.053 216.152 203.605 214.424C203.157 212.675 202.933 210.861 202.933 208.984C202.933 207.085 203.157 205.272 203.605 203.544C204.053 201.795 204.693 200.195 205.525 198.744C206.379 197.272 207.381 196.024 208.533 195L210.901 197.176C209.515 198.499 208.437 200.163 207.669 202.168C206.923 204.173 206.549 206.445 206.549 208.984C206.549 211.501 206.923 213.763 207.669 215.768C208.437 217.773 209.515 219.437 210.901 220.76L208.533 222.936Z" fill="#FF0066"/>
<path d="M221.932 219.32C220.823 219.32 219.82 219.096 218.924 218.648C218.028 218.179 217.313 217.549 216.78 216.76C216.247 215.971 215.959 215.064 215.916 214.04V208.568C215.959 207.544 216.247 206.637 216.78 205.848C217.335 205.037 218.049 204.397 218.924 203.928C219.82 203.459 220.823 203.224 221.932 203.224C223.361 203.224 224.641 203.576 225.772 204.28C226.903 204.984 227.788 205.944 228.428 207.16C229.089 208.376 229.42 209.752 229.42 211.288C229.42 212.803 229.089 214.168 228.428 215.384C227.788 216.6 226.903 217.56 225.772 218.264C224.641 218.968 223.361 219.32 221.932 219.32ZM221.196 215.448C221.964 215.448 222.647 215.277 223.244 214.936C223.841 214.573 224.3 214.083 224.62 213.464C224.961 212.824 225.132 212.088 225.132 211.256C225.132 210.445 224.961 209.731 224.62 209.112C224.3 208.472 223.841 207.981 223.244 207.64C222.647 207.277 221.964 207.096 221.196 207.096C220.449 207.096 219.777 207.277 219.18 207.64C218.583 207.981 218.113 208.472 217.772 209.112C217.452 209.731 217.292 210.445 217.292 211.256C217.292 212.088 217.452 212.824 217.772 213.464C218.113 214.083 218.572 214.573 219.148 214.936C219.745 215.277 220.428 215.448 221.196 215.448ZM213.356 225.464V203.544H217.548V207.608L216.844 211.352L217.516 215.096V225.464H213.356Z" fill="#FF0066"/>
<path d="M232.169 219V203.544H236.361V219H232.169ZM236.361 210.456L234.729 209.368C234.921 207.469 235.475 205.976 236.393 204.888C237.31 203.779 238.633 203.224 240.361 203.224C241.107 203.224 241.779 203.352 242.377 203.608C242.974 203.843 243.518 204.237 244.009 204.792L241.385 207.8C241.15 207.544 240.862 207.352 240.521 207.224C240.201 207.096 239.827 207.032 239.401 207.032C238.505 207.032 237.769 207.32 237.193 207.896C236.638 208.451 236.361 209.304 236.361 210.456Z" fill="#FF0066"/>
<path d="M252.436 219.32C250.814 219.32 249.374 218.979 248.116 218.296C246.857 217.592 245.854 216.632 245.108 215.416C244.382 214.2 244.02 212.813 244.02 211.256C244.02 209.72 244.372 208.355 245.076 207.16C245.801 205.944 246.782 204.984 248.02 204.28C249.257 203.555 250.633 203.192 252.148 203.192C253.641 203.192 254.953 203.533 256.084 204.216C257.236 204.877 258.132 205.795 258.772 206.968C259.433 208.12 259.764 209.432 259.764 210.904C259.764 211.181 259.742 211.469 259.7 211.768C259.678 212.045 259.625 212.365 259.54 212.728L246.548 212.76V209.624L257.588 209.592L255.892 210.904C255.849 209.987 255.678 209.219 255.38 208.6C255.102 207.981 254.686 207.512 254.132 207.192C253.598 206.851 252.937 206.68 252.148 206.68C251.316 206.68 250.59 206.872 249.972 207.256C249.353 207.619 248.873 208.141 248.532 208.824C248.212 209.485 248.052 210.275 248.052 211.192C248.052 212.131 248.222 212.952 248.564 213.656C248.926 214.339 249.438 214.872 250.1 215.256C250.761 215.619 251.529 215.8 252.404 215.8C253.193 215.8 253.908 215.672 254.548 215.416C255.188 215.139 255.742 214.733 256.212 214.2L258.676 216.664C257.929 217.539 257.012 218.2 255.924 218.648C254.857 219.096 253.694 219.32 252.436 219.32Z" fill="#FF0066"/>
<path d="M267.13 219L260.314 203.544H264.922L269.818 216.28H267.546L272.474 203.544H276.922L270.138 219H267.13Z" fill="#FF0066"/>
<path d="M278.856 219V203.544H283.08V219H278.856ZM280.968 201.048C280.285 201.048 279.72 200.824 279.272 200.376C278.824 199.907 278.6 199.331 278.6 198.648C278.6 197.987 278.824 197.421 279.272 196.952C279.72 196.483 280.285 196.248 280.968 196.248C281.672 196.248 282.237 196.483 282.664 196.952C283.112 197.421 283.336 197.987 283.336 198.648C283.336 199.331 283.112 199.907 282.664 200.376C282.237 200.824 281.672 201.048 280.968 201.048Z" fill="#FF0066"/>
<path d="M294.058 219.32C292.5 219.32 291.092 218.968 289.834 218.264C288.596 217.539 287.604 216.568 286.858 215.352C286.132 214.115 285.77 212.739 285.77 211.224C285.77 209.709 286.132 208.355 286.858 207.16C287.583 205.944 288.575 204.984 289.834 204.28C291.092 203.555 292.49 203.192 294.026 203.192C295.604 203.192 297.012 203.555 298.25 204.28C299.508 204.984 300.5 205.944 301.226 207.16C301.951 208.355 302.314 209.709 302.314 211.224C302.314 212.739 301.951 214.115 301.226 215.352C300.5 216.568 299.508 217.539 298.25 218.264C297.012 218.968 295.615 219.32 294.058 219.32ZM294.026 215.416C294.815 215.416 295.508 215.245 296.106 214.904C296.724 214.541 297.194 214.051 297.514 213.432C297.855 212.792 298.026 212.067 298.026 211.256C298.026 210.445 297.855 209.731 297.514 209.112C297.172 208.493 296.703 208.013 296.106 207.672C295.508 207.309 294.815 207.128 294.026 207.128C293.258 207.128 292.575 207.309 291.978 207.672C291.38 208.013 290.911 208.493 290.57 209.112C290.228 209.731 290.058 210.445 290.058 211.256C290.058 212.067 290.228 212.792 290.57 213.432C290.911 214.051 291.38 214.541 291.978 214.904C292.575 215.245 293.258 215.416 294.026 215.416Z" fill="#FF0066"/>
<path d="M311.604 219.32C310.239 219.32 309.023 219.032 307.956 218.456C306.911 217.88 306.09 217.08 305.492 216.056C304.895 215.032 304.596 213.848 304.596 212.504V203.544H308.82V212.408C308.82 213.048 308.927 213.603 309.14 214.072C309.354 214.52 309.674 214.861 310.1 215.096C310.527 215.331 311.028 215.448 311.604 215.448C312.479 215.448 313.162 215.181 313.652 214.648C314.143 214.115 314.388 213.368 314.388 212.408V203.544H318.58V212.504C318.58 213.869 318.282 215.064 317.684 216.088C317.108 217.112 316.287 217.912 315.22 218.488C314.175 219.043 312.97 219.32 311.604 219.32Z" fill="#FF0066"/>
<path d="M327.231 219.352C326.356 219.352 325.492 219.235 324.639 219C323.807 218.765 323.039 218.445 322.335 218.04C321.631 217.613 321.023 217.101 320.511 216.504L323.007 213.976C323.54 214.573 324.159 215.021 324.863 215.32C325.567 215.619 326.345 215.768 327.199 215.768C327.881 215.768 328.393 215.672 328.735 215.48C329.097 215.288 329.279 215 329.279 214.616C329.279 214.189 329.087 213.859 328.703 213.624C328.34 213.389 327.86 213.197 327.263 213.048C326.665 212.877 326.036 212.696 325.375 212.504C324.735 212.291 324.116 212.024 323.519 211.704C322.921 211.363 322.431 210.904 322.047 210.328C321.684 209.731 321.503 208.963 321.503 208.024C321.503 207.043 321.737 206.189 322.207 205.464C322.697 204.739 323.391 204.173 324.287 203.768C325.183 203.363 326.239 203.16 327.455 203.16C328.735 203.16 329.887 203.384 330.911 203.832C331.956 204.28 332.82 204.952 333.503 205.848L330.975 208.376C330.505 207.8 329.972 207.384 329.375 207.128C328.799 206.872 328.169 206.744 327.487 206.744C326.868 206.744 326.388 206.84 326.047 207.032C325.727 207.224 325.567 207.491 325.567 207.832C325.567 208.216 325.748 208.515 326.111 208.728C326.495 208.941 326.985 209.133 327.583 209.304C328.18 209.453 328.799 209.635 329.439 209.848C330.1 210.04 330.719 210.317 331.295 210.68C331.892 211.043 332.372 211.523 332.735 212.12C333.119 212.717 333.311 213.485 333.311 214.424C333.311 215.939 332.767 217.144 331.679 218.04C330.591 218.915 329.108 219.352 327.231 219.352Z" fill="#FF0066"/>
<path d="M337.257 222.936L334.921 220.76C336.308 219.437 337.375 217.773 338.121 215.768C338.868 213.763 339.241 211.501 339.241 208.984C339.241 206.445 338.868 204.173 338.121 202.168C337.375 200.163 336.308 198.499 334.921 197.176L337.257 195C338.431 196.024 339.433 197.272 340.265 198.744C341.097 200.195 341.737 201.795 342.185 203.544C342.655 205.272 342.889 207.085 342.889 208.984C342.889 210.861 342.655 212.675 342.185 214.424C341.737 216.152 341.097 217.741 340.265 219.192C339.433 220.664 338.431 221.912 337.257 222.936Z" fill="#FF0066"/>
<path d="M53.1 24.9998V22.9998H57.12C57.8267 22.9998 58.3734 22.7798 58.76 22.3398C59.1467 21.8998 59.34 21.3931 59.34 20.8198C59.34 20.4331 59.2534 20.0731 59.08 19.7398C58.9067 19.4065 58.6534 19.1398 58.32 18.9398C57.9867 18.7398 57.5867 18.6398 57.12 18.6398H53.1V16.6398H56.78C57.38 16.6398 57.86 16.4865 58.22 16.1798C58.58 15.8731 58.76 15.4198 58.76 14.8198C58.76 14.2198 58.58 13.7665 58.22 13.4598C57.86 13.1531 57.38 12.9998 56.78 12.9998H53.1V10.9998H56.84C57.7867 10.9998 58.5734 11.1731 59.2 11.5198C59.8267 11.8665 60.2934 12.3131 60.6 12.8598C60.9067 13.4065 61.06 13.9931 61.06 14.6198C61.06 15.3531 60.8534 15.9998 60.44 16.5598C60.04 17.1198 59.4467 17.5731 58.66 17.9198L58.84 17.1998C59.72 17.5598 60.4067 18.0665 60.9 18.7198C61.3934 19.3731 61.64 20.1398 61.64 21.0198C61.64 21.7398 61.46 22.3998 61.1 22.9998C60.7534 23.5998 60.2334 24.0865 59.54 24.4598C58.86 24.8198 58.02 24.9998 57.02 24.9998H53.1ZM51.52 24.9998V10.9998H53.82V24.9998H51.52Z" fill="#868686"/>
<path d="M70.4014 25.1998C69.4014 25.1998 68.4681 25.0131 67.6014 24.6398C66.7348 24.2665 65.9748 23.7531 65.3214 23.0998C64.6681 22.4331 64.1548 21.6665 63.7814 20.7998C63.4214 19.9198 63.2414 18.9798 63.2414 17.9798C63.2414 16.9798 63.4214 16.0465 63.7814 15.1798C64.1548 14.3131 64.6614 13.5531 65.3014 12.8998C65.9548 12.2331 66.7081 11.7198 67.5614 11.3598C68.4281 10.9865 69.3614 10.7998 70.3614 10.7998C71.3614 10.7998 72.2881 10.9865 73.1414 11.3598C74.0081 11.7198 74.7681 12.2331 75.4214 12.8998C76.0748 13.5531 76.5814 14.3198 76.9414 15.1998C77.3148 16.0665 77.5014 16.9998 77.5014 17.9998C77.5014 18.9998 77.3148 19.9398 76.9414 20.8198C76.5814 21.6865 76.0748 22.4465 75.4214 23.0998C74.7814 23.7531 74.0281 24.2665 73.1614 24.6398C72.3081 25.0131 71.3881 25.1998 70.4014 25.1998ZM70.3614 22.9998C71.3081 22.9998 72.1348 22.7865 72.8414 22.3598C73.5614 21.9331 74.1214 21.3465 74.5214 20.5998C74.9348 19.8398 75.1414 18.9665 75.1414 17.9798C75.1414 17.2465 75.0214 16.5798 74.7814 15.9798C74.5548 15.3665 74.2281 14.8398 73.8014 14.3998C73.3748 13.9465 72.8681 13.5998 72.2814 13.3598C71.7081 13.1198 71.0681 12.9998 70.3614 12.9998C69.4281 12.9998 68.6014 13.2131 67.8814 13.6398C67.1748 14.0531 66.6148 14.6331 66.2014 15.3798C65.8014 16.1265 65.6014 16.9931 65.6014 17.9798C65.6014 18.7131 65.7148 19.3931 65.9414 20.0198C66.1814 20.6331 66.5081 21.1598 66.9214 21.5998C67.3481 22.0398 67.8548 22.3865 68.4414 22.6398C69.0281 22.8798 69.6681 22.9998 70.3614 22.9998Z" fill="#868686"/>
<path d="M86.4366 25.1998C85.4366 25.1998 84.5032 25.0131 83.6366 24.6398C82.7699 24.2665 82.0099 23.7531 81.3566 23.0998C80.7032 22.4331 80.1899 21.6665 79.8166 20.7998C79.4566 19.9198 79.2766 18.9798 79.2766 17.9798C79.2766 16.9798 79.4566 16.0465 79.8166 15.1798C80.1899 14.3131 80.6966 13.5531 81.3366 12.8998C81.9899 12.2331 82.7432 11.7198 83.5966 11.3598C84.4632 10.9865 85.3966 10.7998 86.3966 10.7998C87.3966 10.7998 88.3232 10.9865 89.1766 11.3598C90.0432 11.7198 90.8032 12.2331 91.4566 12.8998C92.1099 13.5531 92.6166 14.3198 92.9766 15.1998C93.3499 16.0665 93.5366 16.9998 93.5366 17.9998C93.5366 18.9998 93.3499 19.9398 92.9766 20.8198C92.6166 21.6865 92.1099 22.4465 91.4566 23.0998C90.8166 23.7531 90.0632 24.2665 89.1966 24.6398C88.3432 25.0131 87.4233 25.1998 86.4366 25.1998ZM86.3966 22.9998C87.3432 22.9998 88.1699 22.7865 88.8766 22.3598C89.5966 21.9331 90.1566 21.3465 90.5566 20.5998C90.9699 19.8398 91.1766 18.9665 91.1766 17.9798C91.1766 17.2465 91.0566 16.5798 90.8166 15.9798C90.5899 15.3665 90.2632 14.8398 89.8366 14.3998C89.4099 13.9465 88.9032 13.5998 88.3166 13.3598C87.7432 13.1198 87.1033 12.9998 86.3966 12.9998C85.4632 12.9998 84.6366 13.2131 83.9166 13.6398C83.2099 14.0531 82.6499 14.6331 82.2366 15.3798C81.8366 16.1265 81.6366 16.9931 81.6366 17.9798C81.6366 18.7131 81.7499 19.3931 81.9766 20.0198C82.2166 20.6331 82.5432 21.1598 82.9566 21.5998C83.3832 22.0398 83.8899 22.3865 84.4766 22.6398C85.0632 22.8798 85.7032 22.9998 86.3966 22.9998Z" fill="#868686"/>
<path d="M98.458 24.9998V11.3998H100.758V24.9998H98.458ZM93.898 13.0998V10.9998H105.318V13.0998H93.898Z" fill="#868686"/>
<path d="M111.012 24.9998V10.9998H112.612L118.432 20.5798H117.392L123.212 10.9998H124.812V24.9998H122.512V15.0398L123.032 15.1798L118.712 22.2798H117.112L112.792 15.1798L113.312 15.0398V24.9998H111.012Z" fill="#868686"/>
<path d="M127.848 24.9998V10.9998H130.148V24.9998H127.848ZM129.428 24.9998V22.8998H137.268V24.9998H129.428ZM129.428 18.8598V16.8398H136.588V18.8598H129.428ZM129.428 13.0998V10.9998H137.168V13.0998H129.428Z" fill="#868686"/>
<path d="M139.645 24.9998V10.9998H141.245L141.945 13.6398V24.9998H139.645ZM149.345 24.9998L140.965 14.0598L141.245 10.9998L149.625 21.9398L149.345 24.9998ZM149.345 24.9998L148.645 22.5398V10.9998H150.945V24.9998H149.345Z" fill="#868686"/>
<path d="M159.381 25.1998C158.328 25.1998 157.381 24.9598 156.541 24.4798C155.701 23.9998 155.034 23.3465 154.541 22.5198C154.061 21.6798 153.821 20.7331 153.821 19.6798V10.9998H156.121V19.6598C156.121 20.3398 156.261 20.9331 156.541 21.4398C156.834 21.9331 157.228 22.3198 157.721 22.5998C158.214 22.8665 158.768 22.9998 159.381 22.9998C160.008 22.9998 160.561 22.8665 161.041 22.5998C161.521 22.3198 161.901 21.9331 162.181 21.4398C162.461 20.9331 162.601 20.3465 162.601 19.6798V10.9998H164.901V19.6998C164.901 20.7531 164.661 21.6931 164.181 22.5198C163.701 23.3465 163.048 23.9998 162.221 24.4798C161.394 24.9598 160.448 25.1998 159.381 25.1998Z" fill="#868686"/>
<defs>
<filter id="filter0_d_312_20" x="0" y="-0.000244141" width="445" height="343" filterUnits="userSpaceOnUse" color-interpolation-filters="sRGB">
<feFlood flood-opacity="0" result="BackgroundImageFix"/>
<feColorMatrix in="SourceAlpha" type="matrix" values="0 0 0 0 0 0 0 0 0 0 0 0 0 0 0 0 0 0 127 0" result="hardAlpha"/>
<feOffset/>
<feGaussianBlur stdDeviation="25"/>
<feComposite in2="hardAlpha" operator="out"/>
<feColorMatrix type="matrix" values="0 0 0 0 1 0 0 0 0 1 0 0 0 0 1 0 0 0 0.05 0"/>
<feBlend mode="normal" in2="BackgroundImageFix" result="effect1_dropShadow_312_20"/>
<feBlend mode="normal" in="SourceGraphic" in2="effect1_dropShadow_312_20" result="shape"/>
</filter>
<filter id="filter1_f_312_20" x="107.601" y="114" width="231.992" height="35.936" filterUnits="userSpaceOnUse" color-interpolation-filters="sRGB">
<feFlood flood-opacity="0" result="BackgroundImageFix"/>
<feBlend mode="normal" in="SourceGraphic" in2="BackgroundImageFix" result="shape"/>
<feGaussianBlur stdDeviation="2" result="effect1_foregroundBlur_312_20"/>
</filter>
<linearGradient id="paint0_linear_312_20" x1="222.5" y1="49.9998" x2="222.5" y2="293" gradientUnits="userSpaceOnUse">
<stop stop-color="#868686"/>
<stop offset="1" stop-color="#868686" stop-opacity="0"/>
</linearGradient>
</defs>
</svg>
