<svg width="138" height="65" viewBox="0 0 138 65" fill="none" xmlns="http://www.w3.org/2000/svg">
<mask id="mask0_1_15" style="mask-type:luminance" maskUnits="userSpaceOnUse" x="0" y="0" width="138" height="65">
<path d="M138 0H0V65H138V0Z" fill="white"/>
</mask>
<g mask="url(#mask0_1_15)">
<path d="M65.6318 43.6308H69.5828V21.4074H65.6318L64.9413 17.5059H74.6078V47.4942H64.9413L65.6318 43.6308Z" fill="white"/>
<path d="M16.5405 21.4074H12.5896V43.6308H16.5405L17.3077 47.4942H7.6413V17.5059H17.3077L16.5405 21.4074Z" fill="white"/>
<path fill-rule="evenodd" clip-rule="evenodd" d="M22.5694 21.2282H42.7082C43.9766 21.2282 45.0065 22.2551 45.0065 23.52V41.4801C45.0065 42.7449 43.9766 43.7718 42.7082 43.7718H22.5694C21.301 43.7718 20.2712 42.7449 20.2712 41.4801V23.52C20.2712 22.2551 21.301 21.2282 22.5694 21.2282ZM34.7325 34.2693L32.5797 28.6782L30.4742 34.2693H34.7325ZM31.3495 24.4791H33.9518L40.1974 40.0963L37.122 40.5209L35.6788 36.7463H29.5752L28.1558 40.5209H25.0803L31.3495 24.4791Z" fill="#FF0066"/>
<path d="M51.3783 24.6201H57.3873C58.9487 24.6201 60.2183 24.9621 61.1961 25.6462C62.1739 26.3304 62.6628 27.4825 62.6628 29.1023C62.6628 29.7 62.5248 30.2387 62.2488 30.7184C61.9728 31.198 61.6141 31.6108 61.1725 31.9569C61.898 32.3343 62.4934 32.8454 62.9587 33.4902C63.4239 34.1351 63.6565 34.9529 63.6565 35.9438C63.6565 37.4221 63.14 38.578 62.107 39.4116C61.074 40.2451 59.6978 40.6618 57.9786 40.6618H51.3783V24.6201ZM56.9378 27.1679H54.43V31.1548H56.7012C57.5528 31.1548 58.2192 30.9936 58.7002 30.6712C59.1813 30.3488 59.4218 29.8416 59.4218 29.1495C59.4218 28.3946 59.201 27.8756 58.7595 27.5926C58.3178 27.3094 57.7106 27.1679 56.9378 27.1679ZM57.9551 33.6318H54.43V38.1377H57.7422C58.5622 38.1377 59.2207 37.9489 59.7175 37.5715C60.2144 37.194 60.4628 36.6593 60.4628 35.9674C60.4628 35.2124 60.2341 34.6344 59.7768 34.2334C59.3193 33.8323 58.7121 33.6318 57.9551 33.6318Z" fill="white"/>
<path d="M87.245 27.0951H85.4066V31.8619H87.2911C88.1797 31.8619 88.9151 31.6824 89.4973 31.3233C90.0795 30.9643 90.3706 30.3722 90.3706 29.5471C90.3706 28.6763 90.0948 28.05 89.5432 27.6681C88.9917 27.2861 88.2256 27.0951 87.245 27.0951ZM94.6912 40.2036H91.5197L88.2103 34.2451C88.0417 34.2604 87.8656 34.2719 87.6818 34.2795C87.4979 34.2872 87.314 34.2911 87.1302 34.2911H85.4066V40.2036H82.4419V24.6201H87.3371C89.0376 24.6201 90.4931 25.0097 91.7035 25.7889C92.9139 26.5681 93.5191 27.775 93.5191 29.4097C93.5191 30.3723 93.2702 31.2011 92.7722 31.8961C92.2742 32.5913 91.6346 33.1299 90.8532 33.5118L94.6912 40.2036ZM101.494 40.4786C99.7317 40.4786 98.3567 39.9477 97.3685 38.8858C96.3803 37.824 95.8862 36.3993 95.8862 34.6118C95.8862 32.8396 96.4033 31.4264 97.4375 30.3722C98.4717 29.318 99.8851 28.7909 101.678 28.7909C103.531 28.7909 104.968 29.3371 105.987 30.4294C107.006 31.5219 107.515 32.9542 107.515 34.7264C107.515 36.4986 106.963 37.9004 105.86 38.9317C104.757 39.9629 103.302 40.4786 101.494 40.4786ZM104.435 34.7264C104.435 33.6722 104.202 32.8434 103.735 32.24C103.267 31.6365 102.604 31.3347 101.746 31.3347C100.873 31.3347 100.191 31.6021 99.7012 32.1368C99.2109 32.6715 98.9657 33.4889 98.9657 34.589C98.9657 35.689 99.1764 36.5216 99.5977 37.0868C100.019 37.6521 100.666 37.9347 101.54 37.9347C102.398 37.9347 103.095 37.6788 103.631 37.1671C104.167 36.6553 104.435 35.8417 104.435 34.7264ZM115.053 40.4786C113.291 40.4786 111.916 39.9477 110.928 38.8858C109.939 37.824 109.445 36.3993 109.445 34.6118C109.445 32.8396 109.962 31.4264 110.997 30.3722C112.031 29.318 113.444 28.7909 115.237 28.7909C117.091 28.7909 118.527 29.3371 119.546 30.4294C120.565 31.5219 121.074 32.9542 121.074 34.7264C121.074 36.4986 120.523 37.9004 119.419 38.9317C118.316 39.9629 116.861 40.4786 115.053 40.4786ZM117.995 34.7264C117.995 33.6722 117.761 32.8434 117.294 32.24C116.826 31.6365 116.164 31.3347 115.306 31.3347C114.432 31.3347 113.751 31.6021 113.26 32.1368C112.77 32.6715 112.525 33.4889 112.525 34.589C112.525 35.689 112.736 36.5216 113.157 37.0868C113.578 37.6521 114.226 37.9347 115.099 37.9347C115.957 37.9347 116.654 37.6788 117.19 37.1671C117.726 36.6553 117.995 35.8417 117.995 34.7264ZM129.485 37.8203L130.359 39.9744C130.114 40.173 129.765 40.3373 129.313 40.4671C128.861 40.5969 128.459 40.6618 128.106 40.6618C126.728 40.6618 125.644 40.3143 124.855 39.6193C124.066 38.9241 123.671 37.9348 123.671 36.6515V31.4035H122.177V29.1118H123.671V26.4763L126.636 25.9493V29.1118H128.658L129.577 31.4035H126.636V36.1243C126.636 36.7049 126.774 37.1823 127.049 37.5566C127.325 37.931 127.731 38.1182 128.267 38.1182C128.467 38.1182 128.666 38.0952 128.865 38.0494C129.064 38.0036 129.271 37.9272 129.485 37.8203Z" fill="white"/>
</g>
</svg>
