<svg width="462" height="462" viewBox="0 0 462 462" fill="none" xmlns="http://www.w3.org/2000/svg">
<g filter="url(#filter0_d_21_155)">
<rect x="50" y="50" width="149" height="149" rx="10" fill="#424242" fill-opacity="0.4" shape-rendering="crispEdges"/>
<rect x="51" y="51" width="147" height="147" rx="9" stroke="url(#paint0_linear_21_155)" stroke-opacity="0.38" stroke-width="2" shape-rendering="crispEdges"/>
</g>
<path d="M95.0032 131.639C101.258 131.639 106.328 126.568 106.328 120.314C106.328 114.059 101.258 108.989 95.0032 108.989C88.7487 108.989 83.6785 114.059 83.6785 120.314C83.6785 126.568 88.7487 131.639 95.0032 131.639Z" fill="#E95420"/>
<path d="M142.285 106.797C148.539 106.797 153.61 101.727 153.61 95.4726C153.61 89.2182 148.539 84.1479 142.285 84.1479C136.031 84.1479 130.96 89.2182 130.96 95.4726C130.96 101.727 136.031 106.797 142.285 106.797Z" fill="#E95420"/>
<path d="M120.575 149.539C112.382 147.765 105.597 142.546 101.735 135.188C98.7084 136.544 95.3162 136.962 92.0284 136.388C96.6731 147.817 106.537 156.062 118.644 158.672C121.306 159.246 124.019 159.507 126.681 159.507C124.593 156.793 123.445 153.453 123.341 150.009C122.402 149.904 121.462 149.748 120.575 149.539Z" fill="#E95420"/>
<path d="M139.728 160.916C145.982 160.916 151.052 155.846 151.052 149.592C151.052 143.337 145.982 138.267 139.728 138.267C133.473 138.267 128.403 143.337 128.403 149.592C128.403 155.846 133.473 160.916 139.728 160.916Z" fill="#E95420"/>
<path d="M155.488 145.417C159.037 140.981 161.49 135.71 162.69 130.126C164.778 120.367 162.847 110.138 157.315 101.84C156.01 104.919 153.766 107.529 150.948 109.303C154.027 115.096 154.967 121.724 153.557 128.143C152.879 131.274 151.679 134.249 150.009 136.91C152.67 139.102 154.549 142.025 155.436 145.365L155.488 145.417Z" fill="#E95420"/>
<path d="M94.116 104.084C94.4291 104.084 94.69 104.084 95.0032 104.084C96.1513 104.084 97.2994 104.188 98.4475 104.449C100.274 104.866 102.048 105.545 103.614 106.536C108.728 99.178 116.974 94.7943 125.898 94.6377C125.898 93.8027 126.055 92.9155 126.263 92.0805C126.785 89.6277 127.829 87.3837 129.343 85.4527C115.095 84.3046 101.213 91.663 94.1682 104.136L94.116 104.084Z" fill="#E95420"/>
<g filter="url(#filter1_d_21_155)">
<rect x="50" y="263" width="149" height="149" rx="10" fill="#424242" fill-opacity="0.4" shape-rendering="crispEdges"/>
<rect x="51" y="264" width="147" height="147" rx="9" stroke="url(#paint1_linear_21_155)" stroke-opacity="0.38" stroke-width="2" shape-rendering="crispEdges"/>
</g>
<path d="M152.041 296C135.165 296 132 320.001 141.493 320.001C150.986 320.001 168.918 296 152.041 296ZM124.019 317.027C129.074 317.335 134.62 297.765 125.119 298.996C115.622 300.227 118.962 316.719 124.019 317.027ZM100.853 329.187C104.448 327.607 101.316 312.151 95.2023 316.366C89.0919 320.582 97.2575 330.766 100.853 329.187ZM110.982 321.097C115.262 320.226 115.497 302.697 107.865 305.842C100.231 308.987 106.706 321.97 110.982 321.097ZM133.33 360.324C134.09 366.114 129.076 368.974 124.166 365.241C108.535 353.358 150.046 347.43 147.31 331.196C145.039 317.721 103.631 321.869 98.9154 342.954C95.7236 357.215 112.054 377 129.093 377C137.475 377 147.144 369.443 148.953 359.868C150.335 352.568 132.696 355.493 133.33 360.324V360.324Z" fill="white"/>
<g filter="url(#filter2_d_21_155)">
<rect x="263" y="50" width="149" height="149" rx="10" fill="#424242" fill-opacity="0.4" shape-rendering="crispEdges"/>
<rect x="264" y="51" width="147" height="147" rx="9" stroke="url(#paint2_linear_21_155)" stroke-opacity="0.38" stroke-width="2" shape-rendering="crispEdges"/>
</g>
<g clip-path="url(#clip0_21_155)">
<path fill-rule="evenodd" clip-rule="evenodd" d="M377.177 137.518C378.682 133.207 379.5 128.574 379.5 123.75C379.5 100.692 360.808 82 337.75 82C314.692 82 296 100.692 296 123.75C296 135.159 300.576 145.5 307.994 153.035L350.344 110.685L360.799 121.141L377.177 137.518ZM369.55 150.803L350.344 131.596L320.266 161.674C325.585 164.13 331.507 165.5 337.75 165.5C350.487 165.5 361.893 159.796 369.55 150.803Z" fill="#10B981"/>
</g>
<g filter="url(#filter3_d_21_155)">
<rect x="263" y="263" width="149" height="149" rx="10" fill="#424242" fill-opacity="0.4" shape-rendering="crispEdges"/>
<rect x="264" y="264" width="147" height="147" rx="9" stroke="url(#paint3_linear_21_155)" stroke-opacity="0.38" stroke-width="2" shape-rendering="crispEdges"/>
</g>
<path d="M342.651 304.538L332.253 305.534V348.351L342.541 346.802V328.547L356.37 348.794L367.212 345.363L353.051 325.891L367.323 307.526L356.26 304.982L342.541 323.347L342.651 304.538ZM319.08 314.972C318.963 314.984 318.85 315.036 318.761 315.125L314.68 319.205C314.509 319.377 314.476 319.644 314.603 319.852L319.381 327.722C318.534 329.147 317.854 330.683 317.369 332.303L308.597 334.128C308.353 334.178 308.177 334.395 308.177 334.645V340.416C308.177 340.66 308.344 340.871 308.579 340.928L317.093 343.009C317.547 344.886 318.251 346.665 319.181 348.3L314.253 355.815C314.115 356.025 314.144 356.302 314.321 356.479L318.401 360.559C318.573 360.73 318.841 360.764 319.05 360.638L326.772 355.948C328.289 356.823 329.925 357.512 331.654 357.979L333.456 366.643C333.507 366.888 333.724 367.062 333.973 367.062H339.744C339.987 367.062 340.198 366.897 340.256 366.659L342.379 357.978C344.161 357.497 345.846 356.78 347.4 355.865L355.011 360.855C355.22 360.992 355.497 360.965 355.674 360.787L359.755 356.707C359.928 356.534 359.959 356.268 359.832 356.06L357.054 351.481L356.155 351.765C356.024 351.807 355.881 351.758 355.804 351.644C355.804 351.644 354.032 349.05 351.744 345.7C349.008 351.055 343.442 354.722 337.014 354.722C327.882 354.722 320.478 347.319 320.478 338.186C320.478 331.468 324.486 325.69 330.238 323.102V318.836C329.191 319.202 328.179 319.644 327.218 320.168C327.218 320.168 327.216 320.165 327.213 320.163L319.424 315.054C319.319 314.985 319.198 314.958 319.08 314.97L319.08 314.972Z" fill="white"/>
<line x1="124.5" y1="251" x2="124.5" y2="210" stroke="#9D76B0"/>
<line x1="251" y1="125.5" x2="210" y2="125.5" stroke="#9D76B0"/>
<line x1="337.5" y1="251" x2="337.5" y2="210" stroke="#9D76B0"/>
<line x1="250" y1="336.5" x2="209" y2="336.5" stroke="#9D76B0"/>
<defs>
<filter id="filter0_d_21_155" x="0" y="0" width="249" height="249" filterUnits="userSpaceOnUse" color-interpolation-filters="sRGB">
<feFlood flood-opacity="0" result="BackgroundImageFix"/>
<feColorMatrix in="SourceAlpha" type="matrix" values="0 0 0 0 0 0 0 0 0 0 0 0 0 0 0 0 0 0 127 0" result="hardAlpha"/>
<feOffset/>
<feGaussianBlur stdDeviation="25"/>
<feComposite in2="hardAlpha" operator="out"/>
<feColorMatrix type="matrix" values="0 0 0 0 1 0 0 0 0 1 0 0 0 0 1 0 0 0 0.05 0"/>
<feBlend mode="normal" in2="BackgroundImageFix" result="effect1_dropShadow_21_155"/>
<feBlend mode="normal" in="SourceGraphic" in2="effect1_dropShadow_21_155" result="shape"/>
</filter>
<filter id="filter1_d_21_155" x="0" y="213" width="249" height="249" filterUnits="userSpaceOnUse" color-interpolation-filters="sRGB">
<feFlood flood-opacity="0" result="BackgroundImageFix"/>
<feColorMatrix in="SourceAlpha" type="matrix" values="0 0 0 0 0 0 0 0 0 0 0 0 0 0 0 0 0 0 127 0" result="hardAlpha"/>
<feOffset/>
<feGaussianBlur stdDeviation="25"/>
<feComposite in2="hardAlpha" operator="out"/>
<feColorMatrix type="matrix" values="0 0 0 0 1 0 0 0 0 1 0 0 0 0 1 0 0 0 0.05 0"/>
<feBlend mode="normal" in2="BackgroundImageFix" result="effect1_dropShadow_21_155"/>
<feBlend mode="normal" in="SourceGraphic" in2="effect1_dropShadow_21_155" result="shape"/>
</filter>
<filter id="filter2_d_21_155" x="213" y="0" width="249" height="249" filterUnits="userSpaceOnUse" color-interpolation-filters="sRGB">
<feFlood flood-opacity="0" result="BackgroundImageFix"/>
<feColorMatrix in="SourceAlpha" type="matrix" values="0 0 0 0 0 0 0 0 0 0 0 0 0 0 0 0 0 0 127 0" result="hardAlpha"/>
<feOffset/>
<feGaussianBlur stdDeviation="25"/>
<feComposite in2="hardAlpha" operator="out"/>
<feColorMatrix type="matrix" values="0 0 0 0 1 0 0 0 0 1 0 0 0 0 1 0 0 0 0.05 0"/>
<feBlend mode="normal" in2="BackgroundImageFix" result="effect1_dropShadow_21_155"/>
<feBlend mode="normal" in="SourceGraphic" in2="effect1_dropShadow_21_155" result="shape"/>
</filter>
<filter id="filter3_d_21_155" x="213" y="213" width="249" height="249" filterUnits="userSpaceOnUse" color-interpolation-filters="sRGB">
<feFlood flood-opacity="0" result="BackgroundImageFix"/>
<feColorMatrix in="SourceAlpha" type="matrix" values="0 0 0 0 0 0 0 0 0 0 0 0 0 0 0 0 0 0 127 0" result="hardAlpha"/>
<feOffset/>
<feGaussianBlur stdDeviation="25"/>
<feComposite in2="hardAlpha" operator="out"/>
<feColorMatrix type="matrix" values="0 0 0 0 1 0 0 0 0 1 0 0 0 0 1 0 0 0 0.05 0"/>
<feBlend mode="normal" in2="BackgroundImageFix" result="effect1_dropShadow_21_155"/>
<feBlend mode="normal" in="SourceGraphic" in2="effect1_dropShadow_21_155" result="shape"/>
</filter>
<linearGradient id="paint0_linear_21_155" x1="124.5" y1="50" x2="124.5" y2="199" gradientUnits="userSpaceOnUse">
<stop stop-color="#868686"/>
<stop offset="1" stop-color="#868686" stop-opacity="0"/>
</linearGradient>
<linearGradient id="paint1_linear_21_155" x1="124.5" y1="263" x2="124.5" y2="412" gradientUnits="userSpaceOnUse">
<stop stop-color="#868686"/>
<stop offset="1" stop-color="#868686" stop-opacity="0"/>
</linearGradient>
<linearGradient id="paint2_linear_21_155" x1="337.5" y1="50" x2="337.5" y2="199" gradientUnits="userSpaceOnUse">
<stop stop-color="#868686"/>
<stop offset="1" stop-color="#868686" stop-opacity="0"/>
</linearGradient>
<linearGradient id="paint3_linear_21_155" x1="337.5" y1="263" x2="337.5" y2="412" gradientUnits="userSpaceOnUse">
<stop stop-color="#868686"/>
<stop offset="1" stop-color="#868686" stop-opacity="0"/>
</linearGradient>
<clipPath id="clip0_21_155">
<rect width="83.5" height="83.5" fill="white" transform="translate(296 82)"/>
</clipPath>
</defs>
</svg>
