<svg width="1112" height="262" viewBox="0 0 1112 262" fill="none" xmlns="http://www.w3.org/2000/svg">
<g filter="url(#filter0_d_25_5)">
<rect x="50" y="115" width="29" height="97" rx="10" fill="#424242" fill-opacity="0.4" shape-rendering="crispEdges"/>
<rect x="51" y="116" width="27" height="95" rx="9" stroke="url(#paint0_linear_25_5)" stroke-opacity="0.38" stroke-width="2" shape-rendering="crispEdges"/>
</g>
<g filter="url(#filter1_d_25_5)">
<rect x="100" y="115" width="94" height="97" rx="10" fill="#424242" fill-opacity="0.4" shape-rendering="crispEdges"/>
<rect x="101" y="116" width="92" height="95" rx="9" stroke="url(#paint1_linear_25_5)" stroke-opacity="0.38" stroke-width="2" shape-rendering="crispEdges"/>
</g>
<g filter="url(#filter2_d_25_5)">
<rect x="215" y="115" width="94" height="97" rx="10" fill="#424242" fill-opacity="0.4" shape-rendering="crispEdges"/>
<rect x="216" y="116" width="92" height="95" rx="9" stroke="url(#paint2_linear_25_5)" stroke-opacity="0.38" stroke-width="2" shape-rendering="crispEdges"/>
</g>
<g filter="url(#filter3_d_25_5)">
<rect x="330" y="68" width="732" height="144" rx="10" fill="#424242" fill-opacity="0.4" shape-rendering="crispEdges"/>
<rect x="331" y="69" width="730" height="142" rx="9" stroke="url(#paint3_linear_25_5)" stroke-opacity="0.41" stroke-width="2" shape-rendering="crispEdges"/>
</g>
<path d="M619.073 18.1601L608.193 0.88008H614.473L622.913 14.7201H619.313L627.753 0.88008H633.953L622.953 18.1601H619.073ZM618.353 29.0001V15.2401H623.833V29.0001H618.353Z" fill="#FF0066"/>
<path d="M640.24 29.4001C638.293 29.4001 636.533 28.9601 634.96 28.0801C633.413 27.1734 632.173 25.9601 631.24 24.4401C630.333 22.8934 629.88 21.1734 629.88 19.2801C629.88 17.3867 630.333 15.6934 631.24 14.2001C632.146 12.6801 633.386 11.4801 634.96 10.6001C636.533 9.69341 638.28 9.24008 640.2 9.24008C642.173 9.24008 643.933 9.69341 645.48 10.6001C647.053 11.4801 648.293 12.6801 649.2 14.2001C650.106 15.6934 650.56 17.3867 650.56 19.2801C650.56 21.1734 650.106 22.8934 649.2 24.4401C648.293 25.9601 647.053 27.1734 645.48 28.0801C643.933 28.9601 642.186 29.4001 640.24 29.4001ZM640.2 24.5201C641.186 24.5201 642.053 24.3067 642.8 23.8801C643.573 23.4267 644.16 22.8134 644.56 22.0401C644.986 21.2401 645.2 20.3334 645.2 19.3201C645.2 18.3067 644.986 17.4134 644.56 16.6401C644.133 15.8667 643.546 15.2667 642.8 14.8401C642.053 14.3867 641.186 14.1601 640.2 14.1601C639.24 14.1601 638.386 14.3867 637.64 14.8401C636.893 15.2667 636.306 15.8667 635.88 16.6401C635.453 17.4134 635.24 18.3067 635.24 19.3201C635.24 20.3334 635.453 21.2401 635.88 22.0401C636.306 22.8134 636.893 23.4267 637.64 23.8801C638.386 24.3067 639.24 24.5201 640.2 24.5201Z" fill="#FF0066"/>
<path d="M662.173 29.4001C660.467 29.4001 658.947 29.0401 657.613 28.3201C656.307 27.6001 655.28 26.6001 654.533 25.3201C653.787 24.0401 653.413 22.5601 653.413 20.8801V9.68008H658.693V20.7601C658.693 21.5601 658.827 22.2534 659.093 22.8401C659.36 23.4001 659.76 23.8267 660.293 24.1201C660.827 24.4134 661.453 24.5601 662.173 24.5601C663.267 24.5601 664.12 24.2267 664.733 23.5601C665.347 22.8934 665.653 21.9601 665.653 20.7601V9.68008H670.893V20.8801C670.893 22.5867 670.52 24.0801 669.773 25.3601C669.053 26.6401 668.027 27.6401 666.693 28.3601C665.387 29.0534 663.88 29.4001 662.173 29.4001Z" fill="#FF0066"/>
<path d="M675.066 29.0001V9.68008H680.306V29.0001H675.066ZM680.306 18.3201L678.266 16.9601C678.506 14.5867 679.199 12.7201 680.346 11.3601C681.493 9.97341 683.146 9.28008 685.306 9.28008C686.239 9.28008 687.079 9.44008 687.826 9.76008C688.573 10.0534 689.253 10.5467 689.866 11.2401L686.586 15.0001C686.293 14.6801 685.933 14.4401 685.506 14.2801C685.106 14.1201 684.639 14.0401 684.106 14.0401C682.986 14.0401 682.066 14.4001 681.346 15.1201C680.653 15.8134 680.306 16.8801 680.306 18.3201Z" fill="#FF0066"/>
<path d="M708.382 29.4001C706.596 29.4001 704.996 28.9601 703.582 28.0801C702.169 27.2001 701.049 26.0001 700.222 24.4801C699.422 22.9601 699.022 21.2534 699.022 19.3601C699.022 17.4401 699.422 15.7201 700.222 14.2001C701.049 12.6801 702.156 11.4801 703.542 10.6001C704.956 9.72008 706.569 9.28008 708.382 9.28008C709.769 9.28008 711.009 9.56008 712.102 10.1201C713.222 10.6801 714.116 11.4667 714.782 12.4801C715.476 13.4667 715.849 14.5867 715.902 15.8401V22.7201C715.849 23.9734 715.489 25.1067 714.822 26.1201C714.156 27.1334 713.262 27.9334 712.142 28.5201C711.022 29.1067 709.769 29.4001 708.382 29.4001ZM709.262 24.5601C710.249 24.5601 711.102 24.3467 711.822 23.9201C712.569 23.4667 713.142 22.8534 713.542 22.0801C713.969 21.2801 714.182 20.3601 714.182 19.3201C714.182 18.3067 713.969 17.4134 713.542 16.6401C713.142 15.8401 712.569 15.2267 711.822 14.8001C711.102 14.3467 710.262 14.1201 709.302 14.1201C708.316 14.1201 707.449 14.3467 706.702 14.8001C705.982 15.2534 705.409 15.8667 704.982 16.6401C704.582 17.4134 704.382 18.3067 704.382 19.3201C704.382 20.3601 704.582 21.2801 704.982 22.0801C705.409 22.8534 705.996 23.4667 706.742 23.9201C707.489 24.3467 708.329 24.5601 709.262 24.5601ZM719.102 29.0001H713.902V23.8001L714.742 19.0801L713.862 14.4401V0.0800781H719.102V29.0001Z" fill="#FF0066"/>
<path d="M731.818 29.4001C730.058 29.4001 728.471 28.9601 727.058 28.0801C725.645 27.2001 724.538 26.0001 723.738 24.4801C722.938 22.9601 722.538 21.2534 722.538 19.3601C722.538 17.4401 722.938 15.7201 723.738 14.2001C724.538 12.6801 725.645 11.4801 727.058 10.6001C728.471 9.72008 730.058 9.28008 731.818 9.28008C733.205 9.28008 734.445 9.56008 735.538 10.1201C736.631 10.6801 737.498 11.4667 738.138 12.4801C738.805 13.4667 739.165 14.5867 739.218 15.8401V22.8001C739.165 24.0801 738.805 25.2134 738.138 26.2001C737.498 27.1867 736.631 27.9734 735.538 28.5601C734.445 29.1201 733.205 29.4001 731.818 29.4001ZM732.778 24.5601C734.245 24.5601 735.431 24.0801 736.338 23.1201C737.245 22.1334 737.698 20.8667 737.698 19.3201C737.698 18.3067 737.485 17.4134 737.058 16.6401C736.658 15.8401 736.085 15.2267 735.338 14.8001C734.618 14.3467 733.765 14.1201 732.778 14.1201C731.818 14.1201 730.965 14.3467 730.218 14.8001C729.498 15.2267 728.925 15.8401 728.498 16.6401C728.098 17.4134 727.898 18.3067 727.898 19.3201C727.898 20.3601 728.098 21.2801 728.498 22.0801C728.925 22.8534 729.498 23.4667 730.218 23.9201C730.965 24.3467 731.818 24.5601 732.778 24.5601ZM737.418 29.0001V23.8001L738.258 19.0801L737.418 14.4401V9.68008H742.618V29.0001H737.418Z" fill="#FF0066"/>
<path d="M750.094 29.0001V1.64008H755.334V29.0001H750.094ZM745.574 14.2801V9.68008H759.854V14.2801H745.574Z" fill="#FF0066"/>
<path d="M770.412 29.4001C768.652 29.4001 767.065 28.9601 765.652 28.0801C764.238 27.2001 763.132 26.0001 762.332 24.4801C761.532 22.9601 761.132 21.2534 761.132 19.3601C761.132 17.4401 761.532 15.7201 762.332 14.2001C763.132 12.6801 764.238 11.4801 765.652 10.6001C767.065 9.72008 768.652 9.28008 770.412 9.28008C771.798 9.28008 773.038 9.56008 774.132 10.1201C775.225 10.6801 776.092 11.4667 776.732 12.4801C777.398 13.4667 777.758 14.5867 777.812 15.8401V22.8001C777.758 24.0801 777.398 25.2134 776.732 26.2001C776.092 27.1867 775.225 27.9734 774.132 28.5601C773.038 29.1201 771.798 29.4001 770.412 29.4001ZM771.372 24.5601C772.838 24.5601 774.025 24.0801 774.932 23.1201C775.838 22.1334 776.292 20.8667 776.292 19.3201C776.292 18.3067 776.078 17.4134 775.652 16.6401C775.252 15.8401 774.678 15.2267 773.932 14.8001C773.212 14.3467 772.358 14.1201 771.372 14.1201C770.412 14.1201 769.558 14.3467 768.812 14.8001C768.092 15.2267 767.518 15.8401 767.092 16.6401C766.692 17.4134 766.492 18.3067 766.492 19.3201C766.492 20.3601 766.692 21.2801 767.092 22.0801C767.518 22.8534 768.092 23.4667 768.812 23.9201C769.558 24.3467 770.412 24.5601 771.372 24.5601ZM776.012 29.0001V23.8001L776.852 19.0801L776.012 14.4401V9.68008H781.212V29.0001H776.012Z" fill="#FF0066"/>
<path d="M350.04 245V231.4H352.34V245H350.04ZM345.48 233.1V231H356.9V233.1H345.48Z" fill="#868686"/>
<path d="M358.903 245V231H361.203V245H358.903ZM367.803 245V231H370.103V245H367.803ZM360.483 238.8V236.7H368.303V238.8H360.483Z" fill="#868686"/>
<path d="M373.141 245V231H375.441V245H373.141ZM374.721 245V242.9H382.561V245H374.721ZM374.721 238.86V236.84H381.881V238.86H374.721ZM374.721 233.1V231H382.461V233.1H374.721Z" fill="#868686"/>
<path d="M388.942 245V231H391.242V245H388.942ZM390.522 245V242.9H397.842V245H390.522Z" fill="#868686"/>
<path d="M398.429 245L404.189 231H405.789L411.509 245H409.029L404.549 233.66H405.389L400.869 245H398.429ZM401.269 242.3V240.3H408.689V242.3H401.269Z" fill="#868686"/>
<path d="M414.936 239.06V237.16H418.476C419.183 237.16 419.729 236.98 420.116 236.62C420.516 236.247 420.716 235.733 420.716 235.08C420.716 234.493 420.523 234 420.136 233.6C419.749 233.2 419.203 233 418.496 233H414.936V231H418.596C419.476 231 420.249 231.18 420.916 231.54C421.583 231.887 422.096 232.367 422.456 232.98C422.829 233.58 423.016 234.267 423.016 235.04C423.016 235.853 422.829 236.56 422.456 237.16C422.096 237.76 421.583 238.227 420.916 238.56C420.249 238.893 419.476 239.06 418.596 239.06H414.936ZM413.356 245V231H415.656V245H413.356ZM421.036 245L416.136 238.92L418.276 238.14L423.936 245H421.036Z" fill="#868686"/>
<path d="M431.785 245.2C430.825 245.2 429.919 245.013 429.065 244.64C428.212 244.267 427.465 243.753 426.825 243.1C426.185 242.433 425.679 241.667 425.305 240.8C424.945 239.92 424.765 238.98 424.765 237.98C424.765 236.98 424.945 236.047 425.305 235.18C425.679 234.313 426.185 233.553 426.825 232.9C427.479 232.233 428.239 231.72 429.105 231.36C429.985 230.987 430.932 230.8 431.945 230.8C433.052 230.8 434.079 231.013 435.025 231.44C435.972 231.867 436.765 232.473 437.405 233.26L435.845 234.82C435.432 234.233 434.879 233.787 434.185 233.48C433.492 233.16 432.745 233 431.945 233C430.985 233 430.139 233.213 429.405 233.64C428.685 234.053 428.125 234.633 427.725 235.38C427.325 236.127 427.125 236.993 427.125 237.98C427.125 238.967 427.325 239.84 427.725 240.6C428.139 241.347 428.692 241.933 429.385 242.36C430.079 242.787 430.865 243 431.745 243C432.679 243 433.479 242.833 434.145 242.5C434.825 242.153 435.345 241.647 435.705 240.98C436.065 240.3 436.245 239.467 436.245 238.48L437.685 239.52H431.705V237.42H438.625V237.74C438.625 239.407 438.325 240.793 437.725 241.9C437.139 243.007 436.332 243.833 435.305 244.38C434.279 244.927 433.105 245.2 431.785 245.2Z" fill="#868686"/>
<path d="M440.915 245V231H443.215V245H440.915ZM442.495 245V242.9H450.335V245H442.495ZM442.495 238.86V236.84H449.655V238.86H442.495ZM442.495 233.1V231H450.235V233.1H442.495Z" fill="#868686"/>
<path d="M456.26 245.2C455.153 245.2 454.213 245 453.44 244.6C452.666 244.2 451.973 243.613 451.36 242.84L452.92 241.28C453.306 241.84 453.767 242.28 454.3 242.6C454.833 242.907 455.513 243.06 456.34 243.06C457.113 243.06 457.727 242.9 458.18 242.58C458.647 242.26 458.88 241.82 458.88 241.26C458.88 240.793 458.76 240.413 458.52 240.12C458.28 239.827 457.96 239.587 457.56 239.4C457.173 239.2 456.74 239.027 456.26 238.88C455.793 238.72 455.32 238.547 454.84 238.36C454.373 238.16 453.94 237.913 453.54 237.62C453.153 237.327 452.84 236.947 452.6 236.48C452.36 236.013 452.24 235.42 452.24 234.7C452.24 233.873 452.44 233.173 452.84 232.6C453.253 232.013 453.807 231.567 454.5 231.26C455.193 230.953 455.966 230.8 456.82 230.8C457.74 230.8 458.56 230.98 459.28 231.34C460.013 231.7 460.607 232.16 461.06 232.72L459.5 234.28C459.1 233.827 458.68 233.493 458.24 233.28C457.813 233.053 457.32 232.94 456.76 232.94C456.066 232.94 455.52 233.08 455.12 233.36C454.733 233.64 454.54 234.033 454.54 234.54C454.54 234.967 454.66 235.313 454.9 235.58C455.14 235.833 455.453 236.053 455.84 236.24C456.24 236.413 456.673 236.58 457.14 236.74C457.62 236.9 458.093 237.08 458.56 237.28C459.04 237.48 459.473 237.74 459.86 238.06C460.26 238.367 460.58 238.767 460.82 239.26C461.06 239.753 461.18 240.373 461.18 241.12C461.18 242.373 460.733 243.367 459.84 244.1C458.96 244.833 457.766 245.2 456.26 245.2Z" fill="#868686"/>
<path d="M466.388 245V231.4H468.688V245H466.388ZM461.828 233.1V231H473.248V233.1H461.828Z" fill="#868686"/>
<path d="M485.382 245.2C484.382 245.2 483.449 245.013 482.582 244.64C481.715 244.267 480.955 243.753 480.302 243.1C479.649 242.433 479.135 241.667 478.762 240.8C478.402 239.92 478.222 238.98 478.222 237.98C478.222 236.98 478.402 236.047 478.762 235.18C479.135 234.313 479.642 233.553 480.282 232.9C480.935 232.233 481.689 231.72 482.542 231.36C483.409 230.987 484.342 230.8 485.342 230.8C486.342 230.8 487.269 230.987 488.122 231.36C488.989 231.72 489.749 232.233 490.402 232.9C491.055 233.553 491.562 234.32 491.922 235.2C492.295 236.067 492.482 237 492.482 238C492.482 239 492.295 239.94 491.922 240.82C491.562 241.687 491.055 242.447 490.402 243.1C489.762 243.753 489.009 244.267 488.142 244.64C487.289 245.013 486.369 245.2 485.382 245.2ZM485.342 243C486.289 243 487.115 242.787 487.822 242.36C488.542 241.933 489.102 241.347 489.502 240.6C489.915 239.84 490.122 238.967 490.122 237.98C490.122 237.247 490.002 236.58 489.762 235.98C489.535 235.367 489.209 234.84 488.782 234.4C488.355 233.947 487.849 233.6 487.262 233.36C486.689 233.12 486.049 233 485.342 233C484.409 233 483.582 233.213 482.862 233.64C482.155 234.053 481.595 234.633 481.182 235.38C480.782 236.127 480.582 236.993 480.582 237.98C480.582 238.713 480.695 239.393 480.922 240.02C481.162 240.633 481.489 241.16 481.902 241.6C482.329 242.04 482.835 242.387 483.422 242.64C484.009 242.88 484.649 243 485.342 243Z" fill="#868686"/>
<path d="M494.821 245V231H496.421L497.121 233.64V245H494.821ZM504.521 245L496.141 234.06L496.421 231L504.801 241.94L504.521 245ZM504.521 245L503.821 242.54V231H506.121V245H504.521Z" fill="#868686"/>
<path d="M509.157 245V231H511.457V245H509.157ZM510.737 245V242.9H518.577V245H510.737ZM510.737 238.86V236.84H517.897V238.86H510.737ZM510.737 233.1V231H518.477V233.1H510.737Z" fill="#868686"/>
<path d="M62.44 238.46L62.34 235.3L59.76 237.04L58.84 235.26L61.76 234.2L59.34 232.32L60.76 230.9L62.64 233.32L63.7 230.4L65.5 231.32L63.74 233.9L66.9 234L66.58 235.98L63.56 235.1L64.44 238.14L62.44 238.46Z" fill="#868686"/>
<path d="M74.5081 245V231.4H76.7081V245H74.5081ZM72.2081 237.4V235.4H79.0081V237.4H72.2081Z" fill="#868686"/>
<path d="M87.1867 245V239.46C87.1867 238.82 86.98 238.293 86.5667 237.88C86.1667 237.467 85.6467 237.26 85.0067 237.26C84.58 237.26 84.2 237.353 83.8667 237.54C83.5334 237.727 83.2734 237.987 83.0867 238.32C82.9 238.653 82.8067 239.033 82.8067 239.46L81.9467 238.98C81.9467 238.247 82.1067 237.6 82.4267 237.04C82.7467 236.467 83.1867 236.02 83.7467 235.7C84.32 235.367 84.96 235.2 85.6667 235.2C86.3867 235.2 87.0267 235.36 87.5867 235.68C88.1467 236 88.5867 236.447 88.9067 237.02C89.2267 237.58 89.3867 238.233 89.3867 238.98V245H87.1867ZM80.6067 245V230.6H82.8067V245H80.6067Z" fill="#868686"/>
<path d="M96.0823 245.2C95.1223 245.2 94.2557 244.987 93.4823 244.56C92.7223 244.12 92.1157 243.52 91.6623 242.76C91.2223 242 91.0023 241.147 91.0023 240.2C91.0023 239.253 91.2223 238.407 91.6623 237.66C92.1023 236.9 92.6957 236.3 93.4423 235.86C94.2023 235.42 95.0423 235.2 95.9623 235.2C96.8557 235.2 97.6423 235.407 98.3223 235.82C99.0157 236.233 99.5557 236.8 99.9423 237.52C100.342 238.24 100.542 239.06 100.542 239.98C100.542 240.14 100.529 240.307 100.502 240.48C100.489 240.64 100.462 240.82 100.422 241.02H92.5423V239.22H99.2823L98.4623 239.94C98.4357 239.353 98.3223 238.86 98.1223 238.46C97.9223 238.06 97.6357 237.753 97.2623 237.54C96.9023 237.327 96.4557 237.22 95.9223 237.22C95.3623 237.22 94.8757 237.34 94.4623 237.58C94.049 237.82 93.729 238.16 93.5023 238.6C93.2757 239.027 93.1623 239.54 93.1623 240.14C93.1623 240.74 93.2823 241.267 93.5223 241.72C93.7623 242.173 94.1023 242.527 94.5423 242.78C94.9823 243.02 95.489 243.14 96.0623 243.14C96.5557 243.14 97.009 243.053 97.4223 242.88C97.849 242.707 98.209 242.453 98.5023 242.12L99.9023 243.54C99.4357 244.087 98.869 244.5 98.2023 244.78C97.5357 245.06 96.829 245.2 96.0823 245.2Z" fill="#868686"/>
<path d="M106.31 245V235.4H108.51V245H106.31ZM112.69 245V239.28C112.69 238.64 112.49 238.147 112.09 237.8C111.69 237.44 111.196 237.26 110.61 237.26C110.21 237.26 109.85 237.34 109.53 237.5C109.223 237.66 108.976 237.893 108.79 238.2C108.603 238.493 108.51 238.853 108.51 239.28L107.65 238.8C107.65 238.067 107.81 237.433 108.13 236.9C108.45 236.367 108.883 235.953 109.43 235.66C109.976 235.353 110.59 235.2 111.27 235.2C111.95 235.2 112.563 235.347 113.11 235.64C113.656 235.933 114.09 236.347 114.41 236.88C114.73 237.413 114.89 238.053 114.89 238.8V245H112.69ZM119.07 245V239.28C119.07 238.64 118.87 238.147 118.47 237.8C118.07 237.44 117.577 237.26 116.99 237.26C116.603 237.26 116.25 237.34 115.93 237.5C115.61 237.66 115.356 237.893 115.17 238.2C114.983 238.493 114.89 238.853 114.89 239.28L113.65 238.8C113.717 238.067 113.93 237.433 114.29 236.9C114.65 236.367 115.11 235.953 115.67 235.66C116.243 235.353 116.87 235.2 117.55 235.2C118.243 235.2 118.87 235.347 119.43 235.64C119.99 235.933 120.437 236.347 120.77 236.88C121.103 237.413 121.27 238.053 121.27 238.8V245H119.07Z" fill="#868686"/>
<path d="M127.556 245.2C126.69 245.2 125.903 244.98 125.196 244.54C124.503 244.1 123.95 243.507 123.536 242.76C123.136 242 122.936 241.153 122.936 240.22C122.936 239.273 123.136 238.427 123.536 237.68C123.95 236.92 124.503 236.32 125.196 235.88C125.903 235.427 126.69 235.2 127.556 235.2C128.29 235.2 128.936 235.36 129.496 235.68C130.07 235.987 130.523 236.413 130.856 236.96C131.19 237.507 131.356 238.127 131.356 238.82V241.58C131.356 242.273 131.19 242.893 130.856 243.44C130.536 243.987 130.09 244.42 129.516 244.74C128.943 245.047 128.29 245.2 127.556 245.2ZM127.916 243.12C128.73 243.12 129.383 242.847 129.876 242.3C130.383 241.753 130.636 241.053 130.636 240.2C130.636 239.627 130.523 239.12 130.296 238.68C130.07 238.24 129.75 237.9 129.336 237.66C128.936 237.407 128.463 237.28 127.916 237.28C127.383 237.28 126.91 237.407 126.496 237.66C126.096 237.9 125.776 238.24 125.536 238.68C125.31 239.12 125.196 239.627 125.196 240.2C125.196 240.773 125.31 241.28 125.536 241.72C125.776 242.16 126.096 242.507 126.496 242.76C126.91 243 127.383 243.12 127.916 243.12ZM130.496 245V242.42L130.876 240.08L130.496 237.76V235.4H132.696V245H130.496Z" fill="#868686"/>
<path d="M135.158 245V235.4H137.358V245H135.158ZM136.258 233.64C135.885 233.64 135.571 233.513 135.318 233.26C135.078 233.007 134.958 232.693 134.958 232.32C134.958 231.947 135.078 231.633 135.318 231.38C135.571 231.127 135.885 231 136.258 231C136.645 231 136.958 231.127 137.198 231.38C137.438 231.633 137.558 231.947 137.558 232.32C137.558 232.693 137.438 233.007 137.198 233.26C136.958 233.513 136.645 233.64 136.258 233.64Z" fill="#868686"/>
<path d="M146.405 245V239.46C146.405 238.82 146.199 238.293 145.785 237.88C145.385 237.467 144.865 237.26 144.225 237.26C143.799 237.26 143.419 237.353 143.085 237.54C142.752 237.727 142.492 237.987 142.305 238.32C142.119 238.653 142.025 239.033 142.025 239.46L141.165 238.98C141.165 238.247 141.325 237.6 141.645 237.04C141.965 236.467 142.405 236.02 142.965 235.7C143.539 235.367 144.179 235.2 144.885 235.2C145.605 235.2 146.245 235.387 146.805 235.76C147.365 236.12 147.805 236.593 148.125 237.18C148.445 237.753 148.605 238.353 148.605 238.98V245H146.405ZM139.825 245V235.4H142.025V245H139.825Z" fill="#868686"/>
<path d="M159.985 245.2C159.252 245.2 158.598 245.047 158.025 244.74C157.452 244.42 156.998 243.987 156.665 243.44C156.345 242.893 156.185 242.273 156.185 241.58V238.82C156.185 238.127 156.352 237.507 156.685 236.96C157.018 236.413 157.472 235.987 158.045 235.68C158.618 235.36 159.265 235.2 159.985 235.2C160.852 235.2 161.632 235.427 162.325 235.88C163.032 236.32 163.585 236.92 163.985 237.68C164.398 238.427 164.605 239.273 164.605 240.22C164.605 241.153 164.398 242 163.985 242.76C163.585 243.507 163.032 244.1 162.325 244.54C161.632 244.98 160.852 245.2 159.985 245.2ZM159.625 243.12C160.158 243.12 160.625 243 161.025 242.76C161.438 242.507 161.758 242.16 161.985 241.72C162.225 241.28 162.345 240.773 162.345 240.2C162.345 239.627 162.225 239.12 161.985 238.68C161.758 238.24 161.438 237.9 161.025 237.66C160.625 237.407 160.158 237.28 159.625 237.28C159.092 237.28 158.618 237.407 158.205 237.66C157.792 237.9 157.472 238.24 157.245 238.68C157.018 239.12 156.905 239.627 156.905 240.2C156.905 240.773 157.018 241.28 157.245 241.72C157.472 242.16 157.792 242.507 158.205 242.76C158.618 243 159.092 243.12 159.625 243.12ZM154.845 245V230.6H157.045V237.76L156.665 240.08L157.045 242.42V245H154.845Z" fill="#868686"/>
<path d="M170.847 245.2C169.913 245.2 169.067 244.98 168.307 244.54C167.547 244.087 166.94 243.48 166.487 242.72C166.047 241.96 165.827 241.113 165.827 240.18C165.827 239.247 166.047 238.407 166.487 237.66C166.94 236.913 167.547 236.32 168.307 235.88C169.067 235.427 169.913 235.2 170.847 235.2C171.793 235.2 172.647 235.42 173.407 235.86C174.167 236.3 174.767 236.9 175.207 237.66C175.66 238.407 175.887 239.247 175.887 240.18C175.887 241.113 175.66 241.96 175.207 242.72C174.767 243.48 174.167 244.087 173.407 244.54C172.647 244.98 171.793 245.2 170.847 245.2ZM170.847 243.08C171.393 243.08 171.873 242.96 172.287 242.72C172.713 242.467 173.04 242.12 173.267 241.68C173.507 241.24 173.627 240.74 173.627 240.18C173.627 239.62 173.507 239.127 173.267 238.7C173.027 238.273 172.7 237.94 172.287 237.7C171.873 237.447 171.393 237.32 170.847 237.32C170.313 237.32 169.833 237.447 169.407 237.7C168.993 237.94 168.667 238.273 168.427 238.7C168.2 239.127 168.087 239.62 168.087 240.18C168.087 240.74 168.2 241.24 168.427 241.68C168.667 242.12 168.993 242.467 169.407 242.72C169.833 242.96 170.313 243.08 170.847 243.08Z" fill="#868686"/>
<path d="M182.116 245.2C181.183 245.2 180.336 244.98 179.576 244.54C178.816 244.087 178.209 243.48 177.756 242.72C177.316 241.96 177.096 241.113 177.096 240.18C177.096 239.247 177.316 238.407 177.756 237.66C178.209 236.913 178.816 236.32 179.576 235.88C180.336 235.427 181.183 235.2 182.116 235.2C183.063 235.2 183.916 235.42 184.676 235.86C185.436 236.3 186.036 236.9 186.476 237.66C186.929 238.407 187.156 239.247 187.156 240.18C187.156 241.113 186.929 241.96 186.476 242.72C186.036 243.48 185.436 244.087 184.676 244.54C183.916 244.98 183.063 245.2 182.116 245.2ZM182.116 243.08C182.663 243.08 183.143 242.96 183.556 242.72C183.983 242.467 184.309 242.12 184.536 241.68C184.776 241.24 184.896 240.74 184.896 240.18C184.896 239.62 184.776 239.127 184.536 238.7C184.296 238.273 183.969 237.94 183.556 237.7C183.143 237.447 182.663 237.32 182.116 237.32C181.583 237.32 181.103 237.447 180.676 237.7C180.263 237.94 179.936 238.273 179.696 238.7C179.469 239.127 179.356 239.62 179.356 240.18C179.356 240.74 179.469 241.24 179.696 241.68C179.936 242.12 180.263 242.467 180.676 242.72C181.103 242.96 181.583 243.08 182.116 243.08Z" fill="#868686"/>
<path d="M190.172 245V231.4H192.372V245H190.172ZM187.872 237.4V235.4H194.672V237.4H187.872Z" fill="#868686"/>
<path d="M257.504 81.9999V78.4479H263.36C264.405 78.4479 265.216 78.1279 265.792 77.4879C266.389 76.8479 266.688 76.0906 266.688 75.2159C266.688 74.6186 266.56 74.0746 266.304 73.5839C266.048 73.0932 265.664 72.7092 265.152 72.4319C264.661 72.1332 264.064 71.9839 263.36 71.9839H257.504V68.4639H262.88C263.776 68.4639 264.491 68.2399 265.024 67.7919C265.579 67.3439 265.856 66.6719 265.856 65.7759C265.856 64.8586 265.579 64.1759 265.024 63.7279C264.491 63.2799 263.776 63.0559 262.88 63.0559H257.504V59.5039H263.392C264.885 59.5039 266.133 59.7812 267.136 60.3359C268.16 60.8692 268.928 61.5839 269.44 62.4799C269.952 63.3546 270.208 64.3146 270.208 65.3599C270.208 66.6399 269.813 67.7492 269.024 68.6879C268.256 69.6052 267.125 70.2879 265.632 70.7359L265.824 69.3279C267.488 69.7972 268.768 70.5759 269.664 71.6639C270.581 72.7306 271.04 74.0212 271.04 75.5359C271.04 76.7306 270.741 77.8186 270.144 78.7999C269.568 79.7599 268.715 80.5386 267.584 81.1359C266.475 81.7119 265.12 81.9999 263.52 81.9999H257.504ZM254.304 81.9999V59.5039H258.624V81.9999H254.304Z" fill="white"/>
<path d="M137.64 81.9999L146.696 59.5039H150.248L159.272 81.9999H154.632L147.656 63.5359H149.256L142.184 81.9999H137.64ZM142.44 77.8079V74.1599H154.536V77.8079H142.44Z" fill="white"/>
<path d="M40.34 75.6399L40.28 72.4799L37.76 74.2399L36.74 72.2599L39.62 71.2399L37.22 69.4199L38.8 67.8399L40.62 70.2399L41.62 67.3399L43.62 68.3599L41.86 70.8999L44.98 70.9599L44.62 73.1799L41.66 72.2599L42.56 75.2599L40.34 75.6399Z" fill="white"/>
<path d="M53.1509 81.9999V79.7799H56.8109C57.4643 79.7799 57.9709 79.5799 58.3309 79.1799C58.7043 78.7799 58.8909 78.3066 58.8909 77.7599C58.8909 77.3866 58.8109 77.0466 58.6509 76.7399C58.4909 76.4332 58.2509 76.1932 57.9309 76.0199C57.6243 75.8332 57.2509 75.7399 56.8109 75.7399H53.1509V73.5399H56.5109C57.0709 73.5399 57.5176 73.3999 57.8509 73.1199C58.1976 72.8399 58.3709 72.4199 58.3709 71.8599C58.3709 71.2866 58.1976 70.8599 57.8509 70.5799C57.5176 70.2999 57.0709 70.1599 56.5109 70.1599H53.1509V67.9399H56.8309C57.7643 67.9399 58.5443 68.1132 59.1709 68.4599C59.8109 68.7932 60.2909 69.2399 60.6109 69.7999C60.9309 70.3466 61.0909 70.9466 61.0909 71.5999C61.0909 72.3999 60.8443 73.0932 60.3509 73.6799C59.8709 74.2532 59.1643 74.6799 58.2309 74.9599L58.3509 74.0799C59.3909 74.3732 60.1909 74.8599 60.7509 75.5399C61.3243 76.2066 61.6109 77.0132 61.6109 77.9599C61.6109 78.7066 61.4243 79.3866 61.0509 79.9999C60.6909 80.5999 60.1576 81.0866 59.4509 81.4599C58.7576 81.8199 57.9109 81.9999 56.9109 81.9999H53.1509ZM51.1509 81.9999V67.9399H53.8509V81.9999H51.1509Z" fill="white"/>
<path d="M68.0281 82.1999C67.0548 82.1999 66.1748 81.9799 65.3881 81.5399C64.6148 81.0866 63.9948 80.4799 63.5281 79.7199C63.0748 78.9466 62.8481 78.0866 62.8481 77.1399C62.8481 76.1932 63.0748 75.3466 63.5281 74.5999C63.9814 73.8399 64.6014 73.2399 65.3881 72.7999C66.1748 72.3466 67.0481 72.1199 68.0081 72.1199C68.9948 72.1199 69.8748 72.3466 70.6481 72.7999C71.4348 73.2399 72.0548 73.8399 72.5081 74.5999C72.9614 75.3466 73.1881 76.1932 73.1881 77.1399C73.1881 78.0866 72.9614 78.9466 72.5081 79.7199C72.0548 80.4799 71.4348 81.0866 70.6481 81.5399C69.8748 81.9799 69.0014 82.1999 68.0281 82.1999ZM68.0081 79.7599C68.5014 79.7599 68.9348 79.6532 69.3081 79.4399C69.6948 79.2132 69.9881 78.9066 70.1881 78.5199C70.4014 78.1199 70.5081 77.6666 70.5081 77.1599C70.5081 76.6532 70.4014 76.2066 70.1881 75.8199C69.9748 75.4332 69.6815 75.1332 69.3081 74.9199C68.9348 74.6932 68.5014 74.5799 68.0081 74.5799C67.5281 74.5799 67.1014 74.6932 66.7281 74.9199C66.3548 75.1332 66.0614 75.4332 65.8481 75.8199C65.6348 76.2066 65.5281 76.6532 65.5281 77.1599C65.5281 77.6666 65.6348 78.1199 65.8481 78.5199C66.0614 78.9066 66.3548 79.2132 66.7281 79.4399C67.1014 79.6532 67.5281 79.7599 68.0081 79.7599Z" fill="white"/>
<path d="M79.4148 82.1999C78.4415 82.1999 77.5615 81.9799 76.7748 81.5399C76.0015 81.0866 75.3815 80.4799 74.9148 79.7199C74.4615 78.9466 74.2348 78.0866 74.2348 77.1399C74.2348 76.1932 74.4615 75.3466 74.9148 74.5999C75.3682 73.8399 75.9882 73.2399 76.7748 72.7999C77.5615 72.3466 78.4348 72.1199 79.3948 72.1199C80.3815 72.1199 81.2615 72.3466 82.0348 72.7999C82.8215 73.2399 83.4415 73.8399 83.8948 74.5999C84.3482 75.3466 84.5748 76.1932 84.5748 77.1399C84.5748 78.0866 84.3482 78.9466 83.8948 79.7199C83.4415 80.4799 82.8215 81.0866 82.0348 81.5399C81.2615 81.9799 80.3882 82.1999 79.4148 82.1999ZM79.3948 79.7599C79.8882 79.7599 80.3215 79.6532 80.6948 79.4399C81.0815 79.2132 81.3748 78.9066 81.5748 78.5199C81.7882 78.1199 81.8948 77.6666 81.8948 77.1599C81.8948 76.6532 81.7882 76.2066 81.5748 75.8199C81.3615 75.4332 81.0682 75.1332 80.6948 74.9199C80.3215 74.6932 79.8882 74.5799 79.3948 74.5799C78.9148 74.5799 78.4882 74.6932 78.1148 74.9199C77.7415 75.1332 77.4482 75.4332 77.2348 75.8199C77.0215 76.2066 76.9148 76.6532 76.9148 77.1599C76.9148 77.6666 77.0215 78.1199 77.2348 78.5199C77.4482 78.9066 77.7415 79.2132 78.1148 79.4399C78.4882 79.6532 78.9148 79.7599 79.3948 79.7599Z" fill="white"/>
<path d="M87.4472 81.9999V68.3199H90.0672V81.9999H87.4472ZM85.1872 74.6399V72.3399H92.3272V74.6399H85.1872Z" fill="white"/>
<defs>
<filter id="filter0_d_25_5" x="0" y="65" width="129" height="197" filterUnits="userSpaceOnUse" color-interpolation-filters="sRGB">
<feFlood flood-opacity="0" result="BackgroundImageFix"/>
<feColorMatrix in="SourceAlpha" type="matrix" values="0 0 0 0 0 0 0 0 0 0 0 0 0 0 0 0 0 0 127 0" result="hardAlpha"/>
<feOffset/>
<feGaussianBlur stdDeviation="25"/>
<feComposite in2="hardAlpha" operator="out"/>
<feColorMatrix type="matrix" values="0 0 0 0 1 0 0 0 0 1 0 0 0 0 1 0 0 0 0.05 0"/>
<feBlend mode="normal" in2="BackgroundImageFix" result="effect1_dropShadow_25_5"/>
<feBlend mode="normal" in="SourceGraphic" in2="effect1_dropShadow_25_5" result="shape"/>
</filter>
<filter id="filter1_d_25_5" x="50" y="65" width="194" height="197" filterUnits="userSpaceOnUse" color-interpolation-filters="sRGB">
<feFlood flood-opacity="0" result="BackgroundImageFix"/>
<feColorMatrix in="SourceAlpha" type="matrix" values="0 0 0 0 0 0 0 0 0 0 0 0 0 0 0 0 0 0 127 0" result="hardAlpha"/>
<feOffset/>
<feGaussianBlur stdDeviation="25"/>
<feComposite in2="hardAlpha" operator="out"/>
<feColorMatrix type="matrix" values="0 0 0 0 1 0 0 0 0 1 0 0 0 0 1 0 0 0 0.05 0"/>
<feBlend mode="normal" in2="BackgroundImageFix" result="effect1_dropShadow_25_5"/>
<feBlend mode="normal" in="SourceGraphic" in2="effect1_dropShadow_25_5" result="shape"/>
</filter>
<filter id="filter2_d_25_5" x="165" y="65" width="194" height="197" filterUnits="userSpaceOnUse" color-interpolation-filters="sRGB">
<feFlood flood-opacity="0" result="BackgroundImageFix"/>
<feColorMatrix in="SourceAlpha" type="matrix" values="0 0 0 0 0 0 0 0 0 0 0 0 0 0 0 0 0 0 127 0" result="hardAlpha"/>
<feOffset/>
<feGaussianBlur stdDeviation="25"/>
<feComposite in2="hardAlpha" operator="out"/>
<feColorMatrix type="matrix" values="0 0 0 0 1 0 0 0 0 1 0 0 0 0 1 0 0 0 0.05 0"/>
<feBlend mode="normal" in2="BackgroundImageFix" result="effect1_dropShadow_25_5"/>
<feBlend mode="normal" in="SourceGraphic" in2="effect1_dropShadow_25_5" result="shape"/>
</filter>
<filter id="filter3_d_25_5" x="280" y="18" width="832" height="244" filterUnits="userSpaceOnUse" color-interpolation-filters="sRGB">
<feFlood flood-opacity="0" result="BackgroundImageFix"/>
<feColorMatrix in="SourceAlpha" type="matrix" values="0 0 0 0 0 0 0 0 0 0 0 0 0 0 0 0 0 0 127 0" result="hardAlpha"/>
<feOffset/>
<feGaussianBlur stdDeviation="25"/>
<feComposite in2="hardAlpha" operator="out"/>
<feColorMatrix type="matrix" values="0 0 0 0 1 0 0 0 0 1 0 0 0 0 1 0 0 0 0.05 0"/>
<feBlend mode="normal" in2="BackgroundImageFix" result="effect1_dropShadow_25_5"/>
<feBlend mode="normal" in="SourceGraphic" in2="effect1_dropShadow_25_5" result="shape"/>
</filter>
<linearGradient id="paint0_linear_25_5" x1="64.5" y1="115" x2="64.5" y2="212" gradientUnits="userSpaceOnUse">
<stop stop-color="#868686"/>
<stop offset="1" stop-color="#868686" stop-opacity="0"/>
</linearGradient>
<linearGradient id="paint1_linear_25_5" x1="147" y1="115" x2="147" y2="212" gradientUnits="userSpaceOnUse">
<stop stop-color="#868686"/>
<stop offset="1" stop-color="#868686" stop-opacity="0"/>
</linearGradient>
<linearGradient id="paint2_linear_25_5" x1="262" y1="115" x2="262" y2="212" gradientUnits="userSpaceOnUse">
<stop stop-color="#868686"/>
<stop offset="1" stop-color="#868686" stop-opacity="0"/>
</linearGradient>
<linearGradient id="paint3_linear_25_5" x1="696" y1="68" x2="696" y2="212" gradientUnits="userSpaceOnUse">
<stop stop-color="#FF0066"/>
<stop offset="1" stop-color="#FF0267" stop-opacity="0"/>
</linearGradient>
</defs>
</svg>
